<svg width="275" height="46" viewBox="0 0 275 46" fill="none" xmlns="http://www.w3.org/2000/svg">
<path d="M16.8058 1.54559C16.8058 1.54559 8.86133 1.54559 8.86133 9.44134V37.1043C8.86133 37.1043 8.86133 45 16.8058 45H44.6164C44.6164 45 52.5558 45 52.5558 37.1043V9.44134C52.5558 9.44134 52.5558 1.54559 44.6164 1.54559H16.8058Z" fill="#1D1D1B"/>
<path d="M16.8058 1.54559C16.8058 1.54559 8.86133 1.54559 8.86133 9.44134V37.1043C8.86133 37.1043 8.86133 45 16.8058 45H44.6164C44.6164 45 52.5558 45 52.5558 37.1043V9.44134C52.5558 9.44134 52.5558 1.54559 44.6164 1.54559H16.8058Z" stroke="#1D1D1B" stroke-width="0.0531553"/>
<path d="M96.5299 0.0364023C96.8242 0.0119499 97.1203 0.0497071 97.3989 0.147193C97.6775 0.244678 97.9322 0.399686 98.1462 0.602028C98.3602 0.804371 98.5288 1.04947 98.6408 1.32121C98.7528 1.59296 98.8057 1.8852 98.7961 2.17874C98.8058 2.68589 98.6404 3.18103 98.3276 3.58164C98.1221 3.84718 97.8548 4.05918 97.5488 4.19944C97.2428 4.33969 96.9071 4.40403 96.5706 4.38691C96.2376 4.40483 95.9049 4.34448 95.5997 4.21073C95.2944 4.07699 95.0252 3.87361 94.8137 3.61709C94.4791 3.21212 94.2988 2.70283 94.3044 2.17874C94.2968 1.88945 94.35 1.60176 94.4605 1.33405C94.5709 1.06633 94.7363 0.824469 94.9461 0.623898C95.1524 0.418932 95.4006 0.260413 95.6738 0.159058C95.9471 0.0577027 96.239 0.0158748 96.5299 0.0364023ZM96.5706 0.233922C96.3818 0.23392 96.1971 0.289775 96.0403 0.394387C95.8834 0.498999 95.7613 0.647642 95.6896 0.821418C95.5045 1.2599 95.421 1.73418 95.4452 2.20912C95.405 2.76341 95.5365 3.31664 95.822 3.79435C95.9063 3.91086 96.0184 4.00472 96.1481 4.06749C96.2779 4.13026 96.4213 4.15996 96.5655 4.15394C96.7475 4.15484 96.9253 4.10002 97.0748 3.99693C97.2771 3.83349 97.4245 3.61267 97.4975 3.36386C97.6106 2.99832 97.6622 2.61671 97.6503 2.23445C97.6743 1.82342 97.6313 1.41125 97.5229 1.01387C97.4538 0.776742 97.3155 0.565278 97.1257 0.40612C96.9631 0.292878 96.7691 0.232703 96.5706 0.233922Z" fill="white"/>
<path d="M101.903 0.000915527V0.13766C101.697 0.21814 101.52 0.35735 101.394 0.537765C101.287 0.685413 101.23 0.862588 101.231 1.04423C101.221 1.06869 101.221 1.09574 101.231 1.1202C101.235 1.12848 101.242 1.13554 101.25 1.14082C101.258 1.1461 101.267 1.14944 101.276 1.15058H101.327C101.415 1.10243 101.516 1.08475 101.615 1.10035C101.714 1.11595 101.804 1.16394 101.872 1.23668C101.916 1.28066 101.951 1.33283 101.975 1.39019C101.998 1.44755 102.01 1.50897 102.01 1.57095C102.009 1.63831 101.994 1.70482 101.967 1.76656C101.94 1.82831 101.901 1.88405 101.852 1.93054C101.803 1.98116 101.745 2.02125 101.68 2.04827C101.615 2.07529 101.545 2.08866 101.475 2.08754C101.388 2.08763 101.302 2.06914 101.223 2.03331C101.144 1.99748 101.074 1.94516 101.017 1.87989C100.881 1.71511 100.816 1.50446 100.833 1.29239C100.83 1.00767 100.925 0.730501 101.103 0.507377C101.309 0.258519 101.589 0.0811581 101.903 0.000915527V0.000915527Z" fill="white"/>
<path d="M107.698 0.0971069L105.218 4.05257H106.023C106.29 4.0656 106.557 4.04174 106.817 3.98167C107.065 3.90852 107.286 3.76611 107.454 3.57144C107.645 3.34311 107.773 3.06901 107.826 2.77629H107.963L107.79 4.29568H103.93L106.395 0.325015H105.768C105.609 0.316097 105.449 0.316097 105.289 0.325015C105.152 0.363215 105.023 0.424917 104.907 0.507341C104.779 0.586533 104.671 0.693974 104.592 0.821348C104.5 0.979078 104.433 1.14988 104.393 1.32781H104.281L104.393 0.102172L107.698 0.0971069Z" fill="white"/>
<path d="M112.225 2.06727C112.527 2.11727 112.815 2.23126 113.07 2.40153C113.181 2.48801 113.27 2.59894 113.33 2.72553C113.39 2.85211 113.419 2.99088 113.416 3.13084C113.421 3.2806 113.391 3.42946 113.328 3.56569C113.266 3.70193 113.172 3.8218 113.055 3.91586C112.655 4.19015 112.174 4.32222 111.69 4.29064H109.546V4.17415C109.681 4.18384 109.816 4.16485 109.943 4.11844C110.006 4.08954 110.057 4.04167 110.091 3.9817C110.127 3.84114 110.14 3.69593 110.132 3.5512V0.831503C110.141 0.688441 110.127 0.544825 110.091 0.406075C110.059 0.343527 110.007 0.293526 109.943 0.264266C109.815 0.221407 109.68 0.204192 109.546 0.21362V0.0971333H111.583C111.927 0.078506 112.272 0.121389 112.601 0.223749C112.793 0.303716 112.958 0.437438 113.075 0.60866C113.188 0.767249 113.248 0.956511 113.248 1.15057C113.249 1.3526 113.17 1.54687 113.029 1.69249C112.801 1.88912 112.523 2.01887 112.225 2.06727ZM111.094 2.22427V3.74366C111.089 3.83607 111.12 3.92696 111.181 3.99689C111.216 4.0265 111.256 4.04892 111.3 4.06283C111.343 4.07674 111.39 4.08187 111.435 4.07792C111.594 4.07991 111.752 4.04341 111.894 3.97157C112.03 3.89922 112.142 3.78815 112.214 3.6525C112.291 3.50906 112.329 3.34878 112.326 3.18655C112.326 3.00865 112.279 2.83397 112.189 2.68009C112.107 2.53049 111.973 2.41541 111.812 2.35595C111.584 2.26554 111.34 2.22079 111.094 2.22427ZM111.094 1.98117C111.316 1.99387 111.538 1.96111 111.746 1.88494C111.877 1.8233 111.988 1.7269 112.067 1.60639C112.147 1.46642 112.186 1.30659 112.179 1.14551C112.185 0.986103 112.147 0.828082 112.067 0.689694C111.992 0.569983 111.882 0.476227 111.751 0.421269C111.54 0.348557 111.317 0.317588 111.094 0.330106V1.98117Z" fill="white"/>
<path d="M116.712 0.340209V2.02673H116.793C116.904 2.03671 117.015 2.01927 117.117 1.97596C117.22 1.93265 117.309 1.86483 117.379 1.77856C117.514 1.55418 117.593 1.30043 117.608 1.03913H117.725V3.25236H117.608C117.593 3.04678 117.54 2.84579 117.45 2.6598C117.392 2.53131 117.294 2.42479 117.17 2.35593C117.026 2.29409 116.869 2.26635 116.712 2.27489V3.45495C116.703 3.59748 116.714 3.74048 116.742 3.88038C116.763 3.93453 116.803 3.97944 116.854 4.00699C116.939 4.04928 117.035 4.06516 117.129 4.05257H117.379C117.716 4.06807 118.049 3.97189 118.326 3.77909C118.585 3.56673 118.764 3.27425 118.835 2.94849H118.952L118.764 4.28555H115.092V4.17413H115.235C115.338 4.17929 115.44 4.15653 115.53 4.10828C115.587 4.07549 115.631 4.02336 115.652 3.96141C115.686 3.83427 115.698 3.70249 115.688 3.57144V0.816283C115.697 0.699983 115.697 0.583124 115.688 0.466824C115.672 0.398191 115.63 0.338322 115.571 0.299692C115.477 0.236123 115.364 0.205808 115.25 0.213593H115.092V0.0971069H118.657V1.33794H118.54C118.509 1.10307 118.421 0.879045 118.285 0.684603C118.165 0.544587 118.006 0.443951 117.827 0.395919C117.598 0.343304 117.363 0.324531 117.129 0.340209H116.712Z" fill="white"/>
<path d="M123.21 1.70259L124.692 3.54611C124.846 3.74188 125.03 3.91272 125.236 4.05257C125.34 4.11808 125.46 4.15319 125.583 4.15387V4.27035H123.388V4.17413C123.482 4.17444 123.575 4.15183 123.658 4.10829C123.677 4.09634 123.692 4.07986 123.703 4.06038C123.713 4.0409 123.719 4.01905 123.719 3.99686C123.67 3.80613 123.572 3.63149 123.434 3.4904L122.466 2.28502L122.308 2.41164V3.57144C122.299 3.70947 122.313 3.84804 122.349 3.98167C122.382 4.04046 122.431 4.08811 122.492 4.11841C122.598 4.16126 122.713 4.18028 122.828 4.17413V4.29061H120.694V4.17413H120.831C120.934 4.18009 121.036 4.15728 121.127 4.10829C121.185 4.07572 121.23 4.02373 121.254 3.96141C121.282 3.8334 121.292 3.7022 121.285 3.57144V0.816283C121.292 0.680479 121.282 0.544267 121.254 0.411113C121.222 0.350822 121.172 0.301459 121.111 0.269304C121.024 0.228804 120.928 0.209703 120.831 0.213593H120.694V0.0971069H122.792V0.213593C122.68 0.207101 122.568 0.227966 122.466 0.274369C122.408 0.304609 122.362 0.355045 122.339 0.416178C122.303 0.546371 122.289 0.68159 122.298 0.816283V2.11789L123.861 0.861865C124.08 0.684603 124.187 0.542793 124.187 0.441501C124.187 0.400628 124.174 0.360856 124.15 0.327411C124.127 0.293967 124.093 0.268414 124.055 0.25411C123.955 0.226856 123.853 0.213225 123.749 0.213593V0.0971069H125.394V0.213593C125.274 0.21799 125.155 0.243714 125.043 0.289562C124.841 0.419179 124.649 0.563046 124.467 0.720055L123.21 1.70259Z" fill="white"/>
<path d="M129.179 4.17413V4.29061H126.974V4.17413H127.116C127.219 4.17929 127.321 4.15653 127.412 4.10829C127.469 4.07549 127.512 4.02336 127.534 3.96141C127.567 3.83427 127.579 3.70249 127.569 3.57144V0.816283C127.579 0.680202 127.567 0.54345 127.534 0.411113C127.505 0.34997 127.457 0.300077 127.396 0.269304C127.309 0.228804 127.213 0.209703 127.116 0.213593H126.974V0.0971069H129.179V0.213593H129.041C128.939 0.208771 128.838 0.229677 128.746 0.274369C128.687 0.308857 128.642 0.362548 128.619 0.426307C128.584 0.553315 128.572 0.68522 128.583 0.816283V3.57144C128.573 3.70584 128.585 3.84095 128.619 3.97154C128.649 4.03147 128.697 4.08089 128.756 4.11335C128.844 4.15763 128.942 4.17856 129.041 4.17413H129.179Z" fill="white"/>
<path d="M133.645 0.000846999L133.68 1.39868H133.553C133.506 1.07497 133.35 0.776756 133.11 0.55289C132.906 0.352485 132.633 0.238158 132.346 0.233819C132.161 0.221497 131.978 0.281453 131.837 0.400952C131.778 0.44808 131.731 0.507494 131.699 0.574922C131.666 0.642351 131.649 0.71612 131.648 0.790928C131.65 0.876213 131.672 0.959832 131.715 1.03403C131.79 1.1496 131.889 1.248 132.005 1.32271C132.22 1.45937 132.445 1.5812 132.677 1.68737C133.062 1.84051 133.409 2.07363 133.696 2.37109C133.865 2.57802 133.956 2.83836 133.95 3.10546C133.951 3.27647 133.915 3.44567 133.844 3.60133C133.772 3.75699 133.668 3.8954 133.538 4.00696C133.253 4.26491 132.878 4.40133 132.494 4.38681C132.367 4.38666 132.241 4.37308 132.117 4.34629C131.965 4.3093 131.817 4.25844 131.674 4.19435C131.597 4.15961 131.514 4.13902 131.429 4.13358C131.367 4.13602 131.306 4.1572 131.256 4.19435C131.19 4.24391 131.139 4.31046 131.109 4.38681H130.997V2.80158H131.109C131.166 3.18453 131.344 3.53939 131.618 3.81451C131.843 4.03342 132.143 4.15846 132.458 4.16396C132.661 4.17574 132.86 4.10852 133.013 3.97657C133.077 3.92303 133.129 3.85644 133.165 3.78131C133.201 3.70618 133.22 3.62424 133.222 3.54102C133.22 3.43943 133.192 3.34002 133.14 3.25233C133.081 3.14823 132.999 3.05834 132.901 2.98897C132.719 2.86286 132.527 2.75271 132.326 2.65977C132.036 2.5275 131.76 2.36809 131.501 2.1837C131.345 2.06065 131.213 1.90945 131.114 1.73801C131.021 1.5741 130.974 1.38899 130.976 1.20116C130.977 1.04143 131.011 0.883596 131.077 0.737888C131.143 0.592179 131.238 0.461855 131.358 0.35537C131.482 0.237856 131.628 0.146004 131.788 0.0851452C131.948 0.0242864 132.119 -0.00436732 132.29 0.000846999C132.424 -0.000412536 132.558 0.0166283 132.687 0.0514932C132.81 0.0860346 132.929 0.131812 133.044 0.188238C133.135 0.238939 133.235 0.273224 133.339 0.28953C133.363 0.290795 133.386 0.286919 133.408 0.278172C133.43 0.269426 133.45 0.256019 133.466 0.238884C133.514 0.167535 133.544 0.0859212 133.553 0.000846999H133.645Z" fill="white"/>
<path d="M139.537 0.0971069V1.23158H139.425C139.386 1.03281 139.312 0.842488 139.206 0.669409C139.122 0.551054 139.008 0.456761 138.875 0.39592C138.741 0.348606 138.599 0.32963 138.458 0.340209H138.147V3.57144C138.137 3.70584 138.149 3.84095 138.183 3.97154C138.211 4.03268 138.26 4.08258 138.32 4.11335C138.408 4.15807 138.507 4.17903 138.605 4.17413H138.748V4.29061H136.538V4.17413H136.68C136.783 4.17929 136.885 4.15653 136.976 4.10829C137.033 4.07419 137.077 4.02269 137.103 3.96141C137.131 3.8334 137.141 3.7022 137.134 3.57144V0.340209H136.833C136.611 0.318882 136.389 0.382237 136.212 0.51747C136.019 0.709648 135.899 0.96172 135.871 1.23158H135.753V0.0971069H139.537Z" fill="white"/>
<path d="M143.448 0.0363819C143.742 0.0127459 144.038 0.05107 144.316 0.148852C144.594 0.246633 144.849 0.401674 145.063 0.603849C145.276 0.806024 145.445 1.05079 145.557 1.32216C145.67 1.59353 145.723 1.8854 145.714 2.17872C145.721 2.6855 145.556 3.17985 145.246 3.58162C145.04 3.84652 144.772 4.05804 144.466 4.19824C144.161 4.33843 143.825 4.40314 143.489 4.38689C143.155 4.40441 142.822 4.3439 142.516 4.21021C142.21 4.07652 141.94 3.87337 141.727 3.61707C141.392 3.21209 141.212 2.70281 141.217 2.17872C141.21 1.88992 141.263 1.60273 141.372 1.33517C141.482 1.06761 141.646 0.82545 141.854 0.623878C142.062 0.417568 142.311 0.258265 142.586 0.156867C142.862 0.0554697 143.155 0.0143706 143.448 0.0363819ZM143.484 0.233902C143.293 0.233235 143.107 0.28869 142.948 0.39326C142.79 0.497829 142.666 0.646819 142.592 0.821398C142.407 1.25988 142.324 1.73416 142.348 2.2091C142.307 2.76414 142.44 3.3182 142.73 3.79433C142.878 3.9807 143.091 4.10496 143.327 4.14249C143.563 4.18001 143.804 4.12805 144.003 3.99691C144.208 3.83532 144.358 3.614 144.431 3.36384C144.542 2.99776 144.593 2.61656 144.584 2.23443C144.602 1.82229 144.552 1.41002 144.436 1.01385C144.371 0.774841 144.232 0.562223 144.039 0.406099C143.876 0.292242 143.682 0.232004 143.484 0.233902Z" fill="white"/>
<path d="M148.862 0.0971069L150.944 2.69526V0.892252C150.961 0.715929 150.922 0.53878 150.832 0.38579C150.768 0.31871 150.687 0.268068 150.599 0.238108C150.51 0.208147 150.416 0.199741 150.323 0.213593V0.0971069H151.713V0.213593C151.59 0.220599 151.47 0.249772 151.357 0.299692C151.29 0.340746 151.24 0.403338 151.214 0.476953C151.172 0.611099 151.155 0.751883 151.163 0.892252V4.38684H151.057L148.194 0.892252V3.54611C148.18 3.63773 148.188 3.73138 148.217 3.8194C148.247 3.90742 148.296 3.98733 148.363 4.05257C148.472 4.13683 148.606 4.18151 148.744 4.17919H148.841V4.29568H147.349V4.17413C147.523 4.19056 147.696 4.13976 147.833 4.03232C147.89 3.96567 147.934 3.88839 147.961 3.80493C147.988 3.72148 147.998 3.63351 147.991 3.54611V0.598504L147.899 0.507341C147.842 0.416763 147.769 0.336322 147.685 0.269304C147.592 0.228453 147.491 0.209391 147.39 0.213593V0.0971069H148.862Z" fill="white"/>
<path d="M161.139 2.37622V3.54614C161.13 3.69087 161.144 3.83608 161.18 3.97664C161.213 4.03807 161.265 4.08765 161.327 4.11845C161.455 4.1613 161.59 4.17852 161.725 4.16909V4.28558H159.565V4.17416C159.7 4.18385 159.836 4.16486 159.963 4.11845C160.025 4.08955 160.077 4.04167 160.11 3.9817C160.146 3.84115 160.16 3.69594 160.151 3.55121V0.831508C160.16 0.688446 160.147 0.54483 160.11 0.40608C160.079 0.343532 160.027 0.29353 159.963 0.26427C159.835 0.221412 159.7 0.204197 159.565 0.213624V0.0971379H161.526C161.903 0.0831265 162.279 0.118891 162.646 0.203495C162.874 0.268675 163.075 0.403315 163.222 0.588406C163.379 0.774498 163.467 1.00878 163.471 1.25187C163.472 1.39943 163.439 1.54523 163.377 1.67908C163.314 1.81292 163.223 1.93158 163.11 2.02676C162.937 2.16968 162.73 2.26718 162.509 2.31038L163.527 3.72847C163.609 3.85366 163.705 3.96921 163.813 4.07286C163.897 4.13839 164.001 4.17561 164.108 4.17922V4.29571H162.779L161.434 2.37622H161.139ZM161.139 0.319981V2.15844H161.317C161.529 2.16638 161.741 2.13899 161.944 2.0774C162.086 2.02608 162.206 1.92541 162.28 1.79379C162.368 1.62903 162.411 1.44356 162.402 1.25694C162.423 1.00216 162.342 0.749452 162.178 0.552954C161.975 0.384142 161.714 0.300584 161.45 0.319981H161.139Z" fill="white"/>
<path d="M167.114 0.340209V2.02673H167.195C167.305 2.03723 167.416 2.02 167.518 1.97662C167.619 1.93325 167.708 1.86513 167.776 1.77856C167.915 1.55588 167.994 1.30114 168.005 1.03913H168.127V3.25237H168.005C167.992 3.04712 167.94 2.84618 167.852 2.6598C167.794 2.53131 167.696 2.42479 167.572 2.35593C167.428 2.29409 167.271 2.26635 167.114 2.27489V3.45495C167.105 3.59726 167.114 3.74012 167.139 3.88038C167.16 3.93453 167.2 3.97944 167.251 4.00699C167.332 4.04634 167.422 4.06382 167.511 4.05764H167.766C168.103 4.07313 168.436 3.97695 168.713 3.78415C168.97 3.57027 169.149 3.27844 169.222 2.95355H169.339L169.146 4.29061H165.51V4.17413H165.652C165.753 4.1794 165.854 4.15661 165.943 4.10829C166.001 4.07572 166.046 4.02373 166.07 3.96141C166.101 3.83381 166.113 3.70246 166.106 3.57144V0.816283C166.115 0.699983 166.115 0.583124 166.106 0.466824C166.088 0.399002 166.046 0.339723 165.988 0.299692C165.894 0.236123 165.781 0.205808 165.668 0.213593H165.51V0.0971069H169.039V1.33794H168.922C168.888 1.10364 168.801 0.880109 168.667 0.684603C168.545 0.544455 168.384 0.443897 168.204 0.39592C167.989 0.346302 167.767 0.327542 167.547 0.340209H167.114Z" fill="white"/>
<path d="M173.948 0.000846999L173.984 1.39868H173.857C173.81 1.07497 173.653 0.776756 173.414 0.552891C173.207 0.35006 172.929 0.235537 172.639 0.23382C172.454 0.221497 172.272 0.281453 172.13 0.400952C172.072 0.44808 172.025 0.507494 171.992 0.574922C171.959 0.642351 171.942 0.71612 171.942 0.790928C171.943 0.876213 171.966 0.959832 172.008 1.03403C172.083 1.1496 172.182 1.248 172.298 1.32271C172.515 1.46018 172.741 1.58204 172.976 1.68737C173.351 1.84283 173.69 2.07588 173.969 2.37109C174.139 2.57802 174.229 2.83836 174.223 3.10546C174.225 3.27613 174.19 3.4452 174.119 3.60088C174.049 3.75657 173.946 3.89514 173.816 4.00696C173.529 4.26428 173.153 4.4005 172.767 4.38681C172.64 4.3864 172.514 4.37282 172.39 4.34629C172.238 4.3093 172.09 4.25844 171.947 4.19435C171.87 4.15961 171.787 4.13902 171.702 4.13358C171.64 4.13602 171.579 4.15721 171.529 4.19435C171.464 4.243 171.414 4.31 171.387 4.38681H171.27V2.80158H171.387C171.441 3.1853 171.62 3.54089 171.896 3.81451C172.121 4.03343 172.422 4.15846 172.736 4.16396C172.939 4.17574 173.138 4.10852 173.291 3.97657C173.355 3.92303 173.407 3.85644 173.443 3.78131C173.479 3.70618 173.499 3.62424 173.5 3.54102C173.501 3.43908 173.473 3.33902 173.419 3.25233C173.359 3.14823 173.277 3.05834 173.179 2.98897C173.009 2.86528 172.829 2.75681 172.639 2.66484C172.35 2.53257 172.074 2.37315 171.814 2.18876C171.658 2.06572 171.527 1.91452 171.427 1.74308C171.337 1.57877 171.291 1.39363 171.295 1.20623C171.293 1.04674 171.324 0.888524 171.387 0.741913C171.45 0.595302 171.544 0.463589 171.662 0.35537C171.786 0.237856 171.932 0.146004 172.092 0.0851452C172.252 0.0242864 172.422 -0.00436732 172.594 0.000846999C172.729 -0.000124861 172.865 0.0169072 172.996 0.0514932C173.117 0.0861646 173.235 0.131943 173.347 0.188238C173.439 0.238939 173.539 0.273224 173.643 0.28953C173.666 0.291537 173.69 0.288003 173.712 0.27921C173.734 0.270417 173.754 0.256608 173.77 0.238884C173.818 0.167535 173.847 0.0859212 173.857 0.000846999H173.948Z" fill="white"/>
<path d="M177.549 2.39144V3.54617C177.538 3.69124 177.553 3.83707 177.594 3.97666C177.626 4.03921 177.678 4.08921 177.742 4.11847C177.868 4.16067 178.001 4.17788 178.134 4.16912V4.28561H175.99V4.17419C176.125 4.18387 176.261 4.16488 176.387 4.11847C176.45 4.08958 176.502 4.0417 176.535 3.98173C176.574 3.84165 176.587 3.696 176.576 3.55124V0.831536C176.588 0.688445 176.574 0.544372 176.535 0.406108C176.503 0.34356 176.451 0.293558 176.387 0.264298C176.26 0.22144 176.125 0.204225 175.99 0.213652V0.0971661H177.829C178.287 0.0574993 178.745 0.169687 179.132 0.416237C179.255 0.511639 179.355 0.633862 179.423 0.773482C179.491 0.913101 179.526 1.06639 179.524 1.22151C179.532 1.47816 179.441 1.72797 179.27 1.92043C179.085 2.12209 178.841 2.26038 178.572 2.31547C178.235 2.37748 177.892 2.40295 177.549 2.39144ZM177.549 0.365591V2.14834H177.732C177.84 2.15551 177.948 2.13931 178.049 2.10084C178.15 2.06236 178.242 2.00254 178.318 1.92549C178.469 1.72699 178.541 1.47997 178.521 1.23164C178.539 0.986711 178.467 0.743735 178.318 0.547917C178.235 0.472165 178.138 0.414168 178.032 0.377564C177.926 0.34096 177.813 0.326538 177.701 0.335203L177.549 0.365591Z" fill="white"/>
<path d="M181.205 0.0971069H183.38V0.213593H183.273C183.158 0.204249 183.043 0.221591 182.937 0.264239C182.878 0.293673 182.832 0.341861 182.804 0.400984C182.771 0.54881 182.759 0.700565 182.769 0.851735V2.90291C182.751 3.15391 182.779 3.40594 182.85 3.64741C182.912 3.77476 183.012 3.8806 183.135 3.95128C183.289 4.04047 183.466 4.08273 183.644 4.07283C183.849 4.07807 184.05 4.02536 184.225 3.92089C184.387 3.81931 184.513 3.67079 184.587 3.49547C184.682 3.19265 184.721 2.87529 184.704 2.55851V0.851735C184.714 0.715917 184.695 0.579479 184.648 0.45163C184.616 0.380844 184.563 0.322153 184.495 0.284498C184.372 0.229544 184.237 0.205207 184.103 0.213593V0.0971069H185.559V0.213593H185.473C185.369 0.208614 185.267 0.233224 185.177 0.284498C185.097 0.333284 185.035 0.408481 185.004 0.497212C184.974 0.612781 184.962 0.732431 184.968 0.851735V2.44203C184.982 2.80115 184.948 3.16047 184.867 3.51066C184.781 3.75847 184.614 3.97061 184.393 4.11335C184.09 4.30673 183.734 4.40226 183.375 4.38684C183.085 4.4023 182.796 4.35207 182.529 4.23997C182.289 4.1374 182.088 3.95957 181.959 3.7335C181.832 3.47544 181.775 3.1895 181.791 2.90291V0.851735C181.8 0.700305 181.786 0.548369 181.75 0.400984C181.719 0.339701 181.669 0.289974 181.607 0.259175C181.49 0.216078 181.365 0.200478 181.241 0.213593L181.205 0.0971069Z" fill="white"/>
<path d="M189.816 2.06728C190.117 2.11812 190.403 2.23207 190.657 2.40154C190.769 2.48695 190.859 2.59754 190.92 2.72429C190.981 2.85103 191.011 2.99034 191.008 3.13085C191.01 3.28266 190.975 3.43274 190.908 3.56906C190.841 3.70537 190.743 3.82415 190.621 3.91587C190.224 4.19089 189.744 4.32308 189.261 4.29065H187.117V4.17416C187.252 4.1828 187.387 4.16384 187.514 4.11845C187.576 4.08957 187.626 4.04154 187.657 3.98171C187.698 3.84211 187.714 3.69628 187.703 3.55121V0.831513C187.714 0.688104 187.699 0.54384 187.657 0.406085C187.628 0.343643 187.577 0.293446 187.514 0.264276C187.387 0.221417 187.252 0.204202 187.117 0.213629V0.0971431H189.154C189.499 0.0773992 189.844 0.120307 190.173 0.223759C190.367 0.302104 190.534 0.436066 190.651 0.60867C190.762 0.768387 190.822 0.956922 190.825 1.15058C190.823 1.35321 190.743 1.54739 190.601 1.6925C190.379 1.88779 190.108 2.01762 189.816 2.06728ZM188.686 2.22428V3.74367C188.68 3.83608 188.711 3.92697 188.772 3.9969C188.807 4.02651 188.848 4.04893 188.891 4.06284C188.935 4.07675 188.981 4.08188 189.027 4.07793C189.186 4.07855 189.343 4.04213 189.485 3.97158C189.621 3.8978 189.732 3.7871 189.806 3.65251C189.887 3.49502 189.928 3.31977 189.923 3.14282C189.919 2.96586 189.87 2.79284 189.781 2.63958C189.697 2.49111 189.564 2.37644 189.404 2.31545C189.173 2.23881 188.929 2.20784 188.686 2.22428ZM188.686 1.98118C188.907 1.9933 189.129 1.96057 189.338 1.88495C189.468 1.82331 189.579 1.7269 189.658 1.6064C189.736 1.46547 189.775 1.30634 189.77 1.14552C189.775 0.986356 189.736 0.828964 189.658 0.689704C189.584 0.569992 189.473 0.476237 189.343 0.421279C189.132 0.349071 188.909 0.318115 188.686 0.330116V1.98118Z" fill="white"/>
<path d="M196.574 2.81681L196.416 4.29061H192.673V4.17413H192.815C192.918 4.17929 193.02 4.15653 193.111 4.10829C193.167 4.07391 193.21 4.02233 193.233 3.96141C193.264 3.83381 193.276 3.70246 193.269 3.57144V0.816283C193.276 0.680237 193.264 0.543882 193.233 0.411113C193.203 0.350994 193.155 0.301507 193.096 0.269304C193.008 0.229352 192.912 0.210278 192.815 0.213593H192.673V0.0971069H194.919V0.213593H194.735C194.633 0.209415 194.532 0.230289 194.44 0.274369C194.384 0.311766 194.34 0.364525 194.313 0.426307C194.284 0.554222 194.274 0.685509 194.282 0.816283V3.48534C194.273 3.62309 194.285 3.76139 194.318 3.89557C194.332 3.92623 194.353 3.95368 194.378 3.9763C194.404 3.99892 194.433 4.01625 194.465 4.02725C194.591 4.04089 194.717 4.04089 194.842 4.02725H195.194C195.385 4.03264 195.576 3.99272 195.749 3.91077C195.909 3.82415 196.042 3.69648 196.136 3.54105C196.274 3.3067 196.378 3.05444 196.446 2.79148L196.574 2.81681Z" fill="white"/>
<path d="M200.48 4.17413V4.29061H198.274V4.17413H198.417C198.52 4.17929 198.622 4.15653 198.712 4.10829C198.768 4.07391 198.811 4.02233 198.835 3.96141C198.865 3.83381 198.877 3.70246 198.87 3.57144V0.816283C198.877 0.680237 198.865 0.543882 198.835 0.411113C198.806 0.34997 198.758 0.300077 198.697 0.269304C198.609 0.229352 198.513 0.210278 198.417 0.213593H198.274V0.0971069H200.48V0.213593H200.342C200.238 0.208784 200.135 0.229669 200.042 0.274369C199.985 0.311766 199.941 0.364525 199.914 0.426307C199.886 0.554222 199.875 0.685509 199.884 0.816283V3.57144C199.874 3.70584 199.886 3.84095 199.919 3.97154C199.948 4.03268 199.996 4.08258 200.057 4.11335C200.145 4.15807 200.243 4.17903 200.342 4.17413H200.48Z" fill="white"/>
<path d="M204.61 1.70259L206.092 3.54611C206.244 3.74268 206.426 3.91369 206.632 4.05257C206.736 4.11734 206.856 4.15239 206.978 4.15387V4.27035H204.783V4.17413C204.878 4.17529 204.97 4.15264 205.053 4.10829C205.072 4.09634 205.088 4.07986 205.098 4.06038C205.109 4.0409 205.114 4.01905 205.114 3.99686C205.066 3.80613 204.967 3.63149 204.829 3.4904L203.862 2.28502L203.709 2.41164V3.57144C203.699 3.70919 203.711 3.84759 203.745 3.98167C203.777 4.04046 203.827 4.08811 203.887 4.11841C203.994 4.16126 204.108 4.18028 204.223 4.17413V4.29061H202.1V4.17413H202.242C202.343 4.18143 202.444 4.1585 202.532 4.10829C202.591 4.07572 202.636 4.02373 202.66 3.96141C202.691 3.83381 202.702 3.70246 202.695 3.57144V0.816283C202.702 0.680237 202.69 0.543882 202.66 0.411113C202.628 0.352036 202.581 0.302923 202.522 0.269304C202.435 0.229352 202.339 0.210278 202.242 0.213593H202.1V0.0971069H204.213V0.213593C204.101 0.207507 203.989 0.228355 203.887 0.274369C203.829 0.304609 203.783 0.355045 203.76 0.416178C203.727 0.546825 203.715 0.681879 203.724 0.816283V2.11789L205.282 0.861865C205.501 0.684603 205.613 0.542793 205.613 0.441501C205.612 0.400205 205.598 0.360312 205.574 0.32693C205.549 0.293547 205.515 0.268192 205.476 0.25411C205.367 0.223978 205.253 0.210321 205.14 0.213593V0.0971069H206.759V0.213593C206.64 0.21701 206.523 0.242785 206.413 0.289562C206.208 0.41725 206.014 0.561218 205.832 0.720055L204.61 1.70259Z" fill="white"/>
<path d="M210.895 3.0954H209.402L209.229 3.50564C209.176 3.60962 209.145 3.72341 209.138 3.8399C209.135 3.89243 209.148 3.94456 209.174 3.99027C209.2 4.03597 209.239 4.07339 209.285 4.0982C209.416 4.15023 209.557 4.17604 209.698 4.17416V4.29065H208.287V4.17416C208.431 4.15726 208.564 4.09098 208.664 3.98677C208.813 3.79323 208.935 3.58021 209.026 3.3537L210.553 0.0110474H210.614L212.142 3.44992C212.223 3.67374 212.344 3.8813 212.499 4.06274C212.581 4.13241 212.686 4.17174 212.794 4.17416V4.29065H210.757V4.17416H210.833C210.951 4.18467 211.069 4.16184 211.175 4.10832C211.197 4.0921 211.215 4.07074 211.228 4.04607C211.24 4.02139 211.246 3.9941 211.246 3.96652C211.251 3.92784 211.251 3.88871 211.246 3.85003C211.246 3.85003 211.21 3.7538 211.154 3.61706L210.895 3.0954ZM210.788 2.86749L210.161 1.42408L209.514 2.86749H210.788Z" fill="white"/>
<path d="M217.164 0.000942398L217.195 1.39878H217.068C217.025 1.07485 216.87 0.77584 216.63 0.552986C216.425 0.354327 216.152 0.240306 215.866 0.233915C215.681 0.222128 215.498 0.282021 215.356 0.401047C215.299 0.448666 215.253 0.508297 215.221 0.575699C215.189 0.643101 215.173 0.716618 215.173 0.791023C215.171 0.876772 215.194 0.961343 215.239 1.03412C215.311 1.15071 215.409 1.24946 215.524 1.32281C215.742 1.45911 215.968 1.58093 216.202 1.68746C216.586 1.84061 216.934 2.07372 217.22 2.37118C217.388 2.57938 217.478 2.83887 217.475 3.10555C217.476 3.27657 217.44 3.44577 217.368 3.60143C217.297 3.75709 217.193 3.89549 217.062 4.00706C216.778 4.26453 216.403 4.40088 216.018 4.3869C215.892 4.38676 215.765 4.37317 215.642 4.34639C215.488 4.31022 215.338 4.25934 215.193 4.19445C215.117 4.15869 215.034 4.13805 214.949 4.13367C214.888 4.13617 214.829 4.15741 214.781 4.19445C214.714 4.24259 214.662 4.30959 214.633 4.3869H214.516V2.80168H214.633C214.69 3.18473 214.868 3.5397 215.143 3.8146C215.37 4.03255 215.672 4.15731 215.988 4.16406C216.189 4.17504 216.386 4.10783 216.538 3.97667C216.603 3.9238 216.655 3.85735 216.691 3.78207C216.727 3.70679 216.746 3.62451 216.747 3.54111C216.747 3.43995 216.72 3.34051 216.67 3.25243C216.607 3.14934 216.524 3.0598 216.426 2.98907C216.247 2.86157 216.056 2.75133 215.855 2.65987C215.564 2.52748 215.286 2.36808 215.025 2.18379C214.869 2.06213 214.74 1.91058 214.643 1.73811C214.551 1.5742 214.504 1.38909 214.506 1.20126C214.504 1.04209 214.536 0.884324 214.6 0.738474C214.664 0.592624 214.759 0.46205 214.878 0.355466C215.001 0.237008 215.147 0.144546 215.307 0.0836251C215.467 0.0227046 215.638 -0.00541867 215.81 0.000942398C215.944 -0.000317136 216.077 0.0167237 216.207 0.0515886C216.329 0.0869699 216.449 0.132719 216.563 0.188333C216.653 0.239469 216.751 0.273802 216.854 0.289626C216.877 0.291633 216.901 0.288099 216.923 0.279305C216.945 0.270512 216.965 0.256703 216.981 0.23898C217.03 0.1682 217.059 0.0862967 217.068 0.000942398H217.164Z" fill="white"/>
<path d="M221.375 4.17413V4.29061H219.17V4.17413H219.313C219.415 4.17929 219.517 4.15653 219.608 4.10829C219.664 4.07391 219.707 4.02233 219.73 3.96141C219.761 3.83381 219.773 3.70246 219.766 3.57144V0.816283C219.773 0.680237 219.761 0.543882 219.73 0.411113C219.698 0.352036 219.651 0.302923 219.593 0.269304C219.505 0.229352 219.409 0.210278 219.313 0.213593H219.17V0.0971069H221.375V0.213593H221.232C221.13 0.209415 221.029 0.230289 220.937 0.274369C220.88 0.310326 220.835 0.363529 220.81 0.426307C220.781 0.554222 220.771 0.685509 220.779 0.816283V3.57144C220.769 3.70584 220.781 3.84095 220.815 3.97154C220.842 4.03363 220.891 4.08394 220.952 4.11335C221.039 4.15765 221.135 4.17861 221.232 4.17413H221.375Z" fill="white"/>
<path d="M101.598 12.0141H99.9327L99.7341 12.475C99.6768 12.5922 99.6438 12.7197 99.6373 12.8498C99.6306 12.9147 99.6441 12.9801 99.676 13.0372C99.7079 13.0942 99.7566 13.1402 99.8155 13.1689C99.9648 13.22 100.121 13.2474 100.279 13.2499V13.3765H98.7104V13.2499C98.8691 13.2293 99.0162 13.1561 99.128 13.0423C99.2949 12.8258 99.4304 12.5872 99.5304 12.3332L101.221 8.58539H101.287L102.988 12.4345C103.08 12.6861 103.216 12.9194 103.391 13.1233C103.482 13.2036 103.6 13.2485 103.722 13.2499V13.3765H101.44V13.2499H101.532C101.665 13.2613 101.8 13.235 101.919 13.1739C101.944 13.1554 101.964 13.1309 101.978 13.1026C101.991 13.0742 101.997 13.0431 101.995 13.0119C102.002 12.9699 102.002 12.9272 101.995 12.8853C101.995 12.8853 101.954 12.7789 101.893 12.627L101.598 12.0141ZM101.481 11.7609L100.778 10.1301L100.055 11.7457L101.481 11.7609Z" fill="white"/>
<path d="M107.672 10.4543L109.332 12.5206C109.5 12.7501 109.705 12.9504 109.938 13.1132C110.054 13.1866 110.188 13.2252 110.325 13.2246V13.3512H107.871V13.2246C107.975 13.2216 108.077 13.1974 108.171 13.1537C108.192 13.1385 108.209 13.1187 108.22 13.0958C108.232 13.0729 108.237 13.0476 108.237 13.022C108.178 12.8157 108.068 12.6275 107.916 12.475L106.837 11.143L106.664 11.2899V12.5713C106.652 12.7244 106.665 12.8784 106.704 13.0271C106.738 13.0941 106.794 13.1477 106.862 13.179C106.982 13.2312 107.113 13.2538 107.244 13.2449V13.3715H104.861V13.2449H105.019C105.133 13.2488 105.247 13.2245 105.35 13.174C105.413 13.1355 105.462 13.0765 105.487 13.0068C105.524 12.8647 105.537 12.7177 105.528 12.5713V9.48185C105.537 9.33042 105.523 9.17848 105.487 9.0311C105.455 8.96366 105.401 8.90855 105.334 8.8741C105.237 8.82533 105.128 8.80264 105.019 8.80825H104.861V8.67657H107.214V8.80825C107.088 8.80018 106.962 8.82279 106.847 8.8741C106.783 8.91157 106.733 8.96837 106.704 9.03616C106.666 9.18138 106.652 9.33207 106.664 9.48185V10.9405L108.41 9.5325C108.655 9.33329 108.777 9.17628 108.777 9.06149C108.775 9.01636 108.76 8.97272 108.734 8.93585C108.708 8.89898 108.672 8.87049 108.629 8.85384C108.505 8.81799 108.376 8.8026 108.247 8.80825V8.67657H110.091V8.80825C109.957 8.81146 109.826 8.84071 109.704 8.89435C109.474 9.03758 109.256 9.19845 109.052 9.37549L107.672 10.4543Z" fill="white"/>
<path d="M114.522 8.54996L114.583 10.1301H114.441C114.384 9.76617 114.204 9.43224 113.932 9.18304C113.704 8.95769 113.397 8.82882 113.076 8.82345C112.871 8.81334 112.671 8.88229 112.516 9.0159C112.452 9.06823 112.4 9.13386 112.364 9.20821C112.328 9.28257 112.308 9.36385 112.307 9.4464C112.305 9.54465 112.331 9.64144 112.383 9.72495C112.468 9.85242 112.577 9.96246 112.704 10.0491C112.95 10.1969 113.203 10.3321 113.463 10.4543C113.884 10.6249 114.266 10.8801 114.583 11.2038C114.771 11.4364 114.872 11.7263 114.869 12.0243C114.87 12.216 114.83 12.4059 114.751 12.5807C114.672 12.7556 114.556 12.9113 114.41 13.0372C114.09 13.325 113.67 13.4776 113.239 13.4626C113.097 13.4636 112.955 13.4483 112.816 13.4171C112.642 13.3749 112.472 13.319 112.307 13.2499C112.223 13.2068 112.131 13.1794 112.037 13.1689C111.967 13.1733 111.9 13.198 111.844 13.2398C111.772 13.2935 111.716 13.3651 111.681 13.4474H111.528V11.6748H111.655C111.722 12.1101 111.929 12.5119 112.246 12.8194C112.499 13.0631 112.836 13.2024 113.188 13.2094C113.414 13.2207 113.636 13.1465 113.809 13.0018C113.883 12.9391 113.942 12.8614 113.982 12.774C114.022 12.6866 114.043 12.5915 114.044 12.4953C114.043 12.3827 114.011 12.2724 113.952 12.1762C113.885 12.0596 113.793 11.9593 113.682 11.8825C113.481 11.7378 113.266 11.6139 113.04 11.5128C112.715 11.3664 112.406 11.1865 112.119 10.9759C111.939 10.8386 111.79 10.6663 111.681 10.4694C111.549 10.216 111.503 9.92687 111.551 9.64554C111.599 9.36422 111.737 9.10593 111.945 8.90955C112.085 8.77839 112.248 8.67595 112.428 8.60815C112.607 8.54034 112.798 8.50852 112.989 8.51451C113.14 8.51524 113.291 8.53394 113.438 8.57022C113.574 8.60926 113.707 8.6601 113.835 8.72216C113.937 8.78127 114.049 8.82079 114.166 8.83864C114.192 8.83921 114.218 8.83457 114.243 8.82501C114.267 8.81545 114.29 8.80114 114.308 8.78293C114.358 8.70044 114.39 8.60931 114.405 8.51451L114.522 8.54996Z" fill="white"/>
<path d="M118.657 13.2246V13.3512H116.187V13.2246H116.345C116.459 13.2286 116.573 13.2042 116.676 13.1537C116.738 13.1138 116.786 13.0553 116.813 12.9866C116.847 12.844 116.859 12.6971 116.849 12.551V9.46159C116.859 9.31042 116.847 9.15866 116.813 9.01083C116.78 8.94214 116.725 8.88675 116.656 8.85383C116.56 8.80457 116.453 8.78183 116.345 8.78799H116.187V8.65631H118.657V8.78799H118.499C118.384 8.78096 118.27 8.80549 118.168 8.8589C118.102 8.89576 118.051 8.95509 118.025 9.02603C117.989 9.16814 117.975 9.31517 117.985 9.46159V12.551C117.976 12.7024 117.989 12.8544 118.025 13.0018C118.061 13.0684 118.116 13.123 118.183 13.1588C118.281 13.208 118.39 13.2307 118.499 13.2246H118.657Z" fill="white"/>
<path d="M124.824 8.65637V8.78805C124.694 8.79937 124.569 8.84481 124.463 8.91973C124.244 9.1586 124.059 9.42613 123.913 9.71487L122.894 11.4115V12.5511C122.885 12.7025 122.899 12.8544 122.935 13.0018C122.968 13.0669 123.019 13.1213 123.083 13.1588C123.177 13.2077 123.282 13.2304 123.388 13.2247H123.648V13.3513H121V13.2247H121.249C121.364 13.2293 121.478 13.2049 121.58 13.1537C121.644 13.1142 121.694 13.0557 121.723 12.9866C121.756 12.844 121.768 12.6972 121.758 12.5511V11.609L120.648 9.58319C120.527 9.3283 120.371 9.09136 120.185 8.87921C120.08 8.80438 119.952 8.76692 119.823 8.77285V8.64117H122.084V8.77285H121.983C121.884 8.76348 121.785 8.78284 121.697 8.82857C121.674 8.84121 121.655 8.85942 121.64 8.88154C121.626 8.90367 121.618 8.92898 121.616 8.95518C121.674 9.17763 121.766 9.38959 121.891 9.58319L122.731 11.1431L123.582 9.73007C123.732 9.52373 123.839 9.28953 123.897 9.04128C123.897 9.00953 123.888 8.97846 123.872 8.951C123.856 8.92354 123.833 8.90058 123.806 8.88428C123.673 8.81338 123.524 8.77845 123.373 8.78298V8.6513L124.824 8.65637Z" fill="white"/>
<path d="M128.14 12.0142H126.47L126.276 12.4751C126.218 12.5923 126.184 12.7196 126.174 12.8499C126.172 12.9089 126.186 12.9675 126.215 13.0193C126.243 13.0711 126.286 13.1141 126.337 13.1436C126.486 13.1959 126.643 13.2233 126.801 13.2246V13.3513H125.227V13.2246C125.386 13.2052 125.534 13.1318 125.645 13.017C125.814 12.8011 125.951 12.5624 126.052 12.3079L127.738 8.56012H127.824L129.53 12.4092C129.621 12.6603 129.755 12.8935 129.928 13.098C130.023 13.1758 130.141 13.2203 130.264 13.2246V13.3513H127.977V13.2246H128.074C128.207 13.2355 128.341 13.2092 128.461 13.1487C128.486 13.1301 128.506 13.1056 128.52 13.0773C128.533 13.049 128.539 13.0178 128.537 12.9866C128.542 12.9445 128.542 12.9021 128.537 12.86C128.537 12.86 128.496 12.7536 128.43 12.6017L128.14 12.0142ZM128.023 11.761L127.315 10.1302L126.587 11.7458L128.023 11.761Z" fill="white"/>
<path d="M131.338 13.3512V13.2246H131.491C131.6 13.232 131.709 13.2092 131.806 13.1588C131.878 13.1201 131.935 13.0598 131.969 12.9866C131.998 12.8433 132.008 12.6969 132 12.551V9.46162C132.009 9.31045 131.997 9.1587 131.964 9.01087C131.931 8.94218 131.875 8.88678 131.806 8.85387C131.709 8.80465 131.6 8.78194 131.491 8.78803H131.338V8.65635H133.451C133.915 8.63935 134.378 8.71691 134.811 8.88426C135.214 9.05654 135.548 9.35545 135.763 9.73511C135.944 10.0695 136.052 10.4379 136.081 10.8164C136.11 11.195 136.059 11.5754 135.931 11.9332C135.839 12.1867 135.699 12.4204 135.519 12.6219C135.348 12.7994 135.149 12.9467 134.928 13.0575C134.671 13.177 134.398 13.2621 134.118 13.3107C133.898 13.3422 133.674 13.3557 133.451 13.3512H131.338ZM133.136 8.92477V12.5865C133.13 12.7069 133.139 12.8276 133.161 12.9461C133.181 12.9885 133.215 13.0226 133.258 13.0423C133.341 13.0836 133.434 13.1028 133.528 13.098C133.697 13.1076 133.866 13.0768 134.022 13.008C134.177 12.9393 134.313 12.8347 134.419 12.703C134.734 12.2101 134.88 11.6292 134.836 11.0468C134.858 10.55 134.76 10.0553 134.551 9.60343C134.43 9.34907 134.222 9.14488 133.966 9.02606C133.698 8.93983 133.416 8.90544 133.136 8.92477Z" fill="white"/>
<path d="M140.047 8.61069C140.377 8.5827 140.709 8.62438 141.021 8.73299C141.333 8.84161 141.619 9.0147 141.86 9.24092C142.1 9.46714 142.29 9.74136 142.416 10.0456C142.543 10.3498 142.603 10.6772 142.593 11.0063C142.605 11.5732 142.426 12.1278 142.084 12.5814C141.852 12.8773 141.552 13.1132 141.209 13.2693C140.866 13.4253 140.49 13.4968 140.113 13.4778C139.74 13.4975 139.368 13.4304 139.026 13.2818C138.684 13.1332 138.381 12.9072 138.142 12.6219C137.774 12.1662 137.579 11.5958 137.592 11.0113C137.584 10.6873 137.643 10.365 137.767 10.065C137.89 9.76507 138.075 9.49401 138.31 9.26909C138.537 9.04456 138.809 8.86993 139.108 8.75652C139.407 8.6431 139.727 8.59342 140.047 8.61069ZM140.093 8.83354C139.881 8.83303 139.674 8.89541 139.498 9.0127C139.322 9.13 139.185 9.29686 139.105 9.49194C138.896 9.98117 138.802 10.5111 138.83 11.0417C138.783 11.6641 138.933 12.2854 139.257 12.8194C139.35 12.9495 139.474 13.0543 139.619 13.1242C139.763 13.1941 139.922 13.2269 140.082 13.2195C140.296 13.2262 140.506 13.1659 140.683 13.0473C140.911 12.8642 141.078 12.6171 141.162 12.3383C141.286 11.928 141.343 11.5004 141.33 11.0721C141.352 10.6014 141.293 10.1305 141.157 9.67933C141.077 9.42316 140.923 9.19602 140.714 9.02599C140.539 8.89438 140.327 8.82006 140.108 8.81328L140.093 8.83354Z" fill="white"/>
<path d="M145.68 11.214V12.5308C145.669 12.6909 145.684 12.8518 145.726 13.0069C145.759 13.0769 145.817 13.1326 145.889 13.1639C146.031 13.2141 146.182 13.2348 146.332 13.2247V13.3513H143.918V13.2247C144.068 13.2357 144.219 13.215 144.361 13.1639C144.431 13.1309 144.489 13.0757 144.524 13.0069C144.565 12.8518 144.581 12.6909 144.57 12.5308V9.49203C144.58 9.33024 144.565 9.16781 144.524 9.01089C144.489 8.94208 144.431 8.88686 144.361 8.85389C144.219 8.80607 144.068 8.78713 143.918 8.79818V8.6665H146.108C146.529 8.64991 146.951 8.69081 147.361 8.78805C147.618 8.86025 147.846 9.0108 148.012 9.21854C148.177 9.43189 148.265 9.69408 148.262 9.96304C148.266 10.1244 148.234 10.2847 148.169 10.4326C148.104 10.5805 148.007 10.7124 147.885 10.819C147.693 10.9823 147.461 11.0939 147.213 11.1431L148.349 12.7334C148.441 12.8713 148.547 13.0002 148.664 13.1183C148.76 13.1902 148.875 13.2309 148.995 13.2348V13.3614H147.508L145.98 11.2241L145.68 11.214ZM145.68 8.9096V10.9658H145.879C146.123 10.975 146.367 10.9459 146.602 10.8797C146.76 10.8193 146.893 10.7067 146.979 10.5607C147.078 10.3757 147.126 10.1675 147.116 9.95797C147.139 9.67152 147.048 9.38752 146.861 9.16789C146.751 9.07307 146.622 9.00134 146.483 8.95696C146.344 8.91259 146.197 8.89648 146.052 8.9096H145.68Z" fill="white"/>
<path d="M154.351 11.7052L154.173 13.3512H149.981V13.2246H150.139C150.254 13.2292 150.368 13.2048 150.47 13.1537C150.534 13.1152 150.583 13.0563 150.608 12.9866C150.644 12.8444 150.658 12.6974 150.649 12.551V9.46159C150.658 9.31016 150.644 9.15822 150.608 9.01083C150.575 8.9434 150.522 8.88829 150.455 8.85383C150.357 8.80462 150.249 8.78191 150.139 8.78799H149.981V8.65631H152.502V8.78799H152.293C152.179 8.78147 152.064 8.80597 151.962 8.8589C151.896 8.89576 151.846 8.95509 151.82 9.02603C151.786 9.16859 151.774 9.31544 151.784 9.46159V12.4497C151.773 12.6045 151.787 12.7601 151.825 12.9106C151.84 12.9453 151.862 12.9763 151.89 13.0016C151.919 13.027 151.952 13.046 151.988 13.0575C152.127 13.0851 152.269 13.0953 152.411 13.0879H152.803C153.019 13.0966 153.235 13.0514 153.429 12.9562C153.609 12.8594 153.758 12.7158 153.862 12.5409C154.016 12.2799 154.133 11.9986 154.208 11.7052H154.351Z" fill="white"/>
<path d="M158.146 13.2246V13.3512H155.676V13.2246H155.834C155.948 13.2286 156.062 13.2042 156.165 13.1537C156.228 13.1152 156.277 13.0563 156.302 12.9866C156.339 12.8444 156.352 12.6974 156.343 12.551V9.46159C156.352 9.31016 156.338 9.15822 156.302 9.01083C156.27 8.9434 156.216 8.88829 156.149 8.85383C156.052 8.80462 155.943 8.78191 155.834 8.78799H155.676V8.65631H158.146V8.78799H157.988C157.873 8.78147 157.759 8.80597 157.657 8.8589C157.591 8.89576 157.54 8.95509 157.514 9.02603C157.48 9.16859 157.468 9.31544 157.479 9.46159V12.551C157.467 12.7025 157.481 12.8548 157.519 13.0018C157.553 13.0682 157.606 13.1229 157.672 13.1588C157.77 13.2075 157.879 13.2302 157.988 13.2246H158.146Z" fill="white"/>
<path d="M162.199 10.4543L163.86 12.5206C164.033 12.7535 164.247 12.954 164.491 13.1132C164.607 13.1866 164.741 13.2252 164.878 13.2246V13.3512H162.423V13.2246C162.527 13.2216 162.63 13.1974 162.724 13.1537C162.745 13.1385 162.761 13.1186 162.773 13.0958C162.784 13.0729 162.79 13.0476 162.79 13.022C162.731 12.8157 162.621 12.6275 162.469 12.475L161.364 11.143L161.186 11.2899V12.5713C161.175 12.7247 161.19 12.8789 161.232 13.0271C161.265 13.0941 161.321 13.1477 161.39 13.179C161.51 13.2318 161.641 13.2544 161.772 13.2449V13.3715H159.398V13.2449H159.556C159.671 13.2488 159.785 13.2245 159.887 13.174C159.951 13.1355 160 13.0765 160.025 13.0068C160.061 12.8646 160.075 12.7177 160.066 12.5713V9.48184C160.075 9.33041 160.061 9.17848 160.025 9.03109C159.992 8.96365 159.939 8.90855 159.872 8.87409C159.774 8.82533 159.666 8.80264 159.556 8.80825H159.398V8.67657H161.746V8.80825C161.622 8.8006 161.498 8.8232 161.385 8.87409C161.32 8.91005 161.269 8.96733 161.242 9.03616C161.2 9.18089 161.185 9.33176 161.196 9.48184V10.9405L162.963 9.51223C163.208 9.31302 163.33 9.15602 163.33 9.04122C163.328 8.9961 163.313 8.95245 163.287 8.91559C163.261 8.87872 163.224 8.85023 163.182 8.83357C163.058 8.79773 162.929 8.78233 162.8 8.78799V8.65631H164.644V8.78799C164.51 8.79119 164.379 8.82045 164.257 8.87409C164.027 9.01731 163.809 9.17818 163.605 9.35523L162.199 10.4543Z" fill="white"/>
<path d="M171.463 8.78799V8.65631H173.973V8.78799H173.821C173.704 8.78054 173.588 8.80507 173.485 8.8589C173.421 8.89794 173.373 8.95672 173.347 9.02603C173.31 9.16814 173.297 9.31517 173.306 9.46159V11.7609C173.323 12.0937 173.278 12.4268 173.174 12.7435C173.069 12.9577 172.9 13.1346 172.69 13.2499C172.436 13.392 172.147 13.4621 171.855 13.4525C171.507 13.4695 171.165 13.3596 170.892 13.1436C170.783 13.0636 170.693 12.9601 170.63 12.8409C170.566 12.7216 170.531 12.5896 170.526 12.4548C170.521 12.3089 170.574 12.1668 170.673 12.0597C170.772 11.9697 170.901 11.9197 171.035 11.9197C171.169 11.9197 171.298 11.9697 171.397 12.0597C171.444 12.1019 171.481 12.1535 171.506 12.2111C171.532 12.2688 171.545 12.3311 171.544 12.394C171.545 12.4507 171.537 12.5072 171.519 12.5611C171.486 12.6229 171.449 12.6822 171.407 12.7384C171.36 12.7957 171.329 12.8636 171.315 12.9359C171.315 12.9672 171.323 12.9979 171.338 13.0254C171.353 13.0528 171.375 13.076 171.402 13.0929C171.503 13.162 171.625 13.1958 171.748 13.1891C171.836 13.1934 171.923 13.1665 171.992 13.1132C172.064 13.0519 172.113 12.9678 172.13 12.8751C172.17 12.5781 172.184 12.2781 172.171 11.9787V9.46159C172.182 9.31013 172.169 9.15779 172.13 9.01083C172.097 8.9434 172.044 8.88829 171.977 8.85383C171.879 8.80507 171.771 8.78238 171.661 8.78799H171.463Z" fill="white"/>
<path d="M177.9 12.0142H176.235L176.036 12.4751C175.979 12.5922 175.946 12.7197 175.939 12.8499C175.936 12.9085 175.949 12.967 175.977 13.0188C176.005 13.0707 176.046 13.1138 176.097 13.1436C176.246 13.1953 176.403 13.2227 176.561 13.2246V13.3513H174.992V13.2246C175.151 13.2029 175.297 13.1299 175.41 13.017C175.575 12.7993 175.71 12.5609 175.812 12.3079L177.498 8.56012H177.564L179.26 12.4092C179.352 12.6593 179.487 12.8922 179.657 13.098C179.752 13.1758 179.87 13.2203 179.993 13.2246V13.3513H177.732V13.2246H177.824C177.957 13.2355 178.091 13.2092 178.211 13.1487C178.236 13.1301 178.256 13.1056 178.27 13.0773C178.283 13.049 178.289 13.0178 178.287 12.9866C178.294 12.9447 178.294 12.9019 178.287 12.86C178.287 12.86 178.246 12.7536 178.18 12.6017L177.9 12.0142ZM177.783 11.761L177.08 10.1302L176.357 11.7458L177.783 11.761Z" fill="white"/>
<path d="M184.398 11.7508L185.681 8.65631H187.601V8.78799H187.448C187.334 8.78096 187.219 8.80549 187.117 8.8589C187.053 8.89518 187.002 8.95236 186.975 9.02096C186.941 9.16357 186.929 9.31038 186.939 9.45652V12.551C186.93 12.7022 186.942 12.8539 186.975 13.0018C187.011 13.0684 187.066 13.123 187.133 13.1588C187.23 13.2075 187.339 13.2302 187.448 13.2246H187.601V13.3512H185.136V13.2246H185.289C185.405 13.2296 185.521 13.2052 185.625 13.1537C185.688 13.1138 185.736 13.0553 185.763 12.9866C185.799 12.8444 185.813 12.6974 185.803 12.551V9.07161L183.991 13.3512H183.909L182.071 9.11719V12.4092C182.058 12.5507 182.058 12.6931 182.071 12.8346C182.097 12.9485 182.166 13.0481 182.264 13.1132C182.406 13.1987 182.572 13.2376 182.738 13.2246V13.3512H181.144V13.2246H181.195C181.294 13.2259 181.392 13.2087 181.485 13.174C181.565 13.1438 181.636 13.0952 181.694 13.0321C181.746 12.9557 181.782 12.8696 181.801 12.7789C181.801 12.7536 181.801 12.6371 181.801 12.4244V9.45652C181.811 9.30702 181.799 9.15684 181.765 9.01083C181.73 8.94325 181.675 8.88829 181.607 8.85383C181.509 8.80507 181.401 8.78238 181.291 8.78799H181.139V8.65631H183.069L184.398 11.7508Z" fill="white"/>
<path d="M191.268 13.2246V13.3512H188.803V13.2246H188.956C189.07 13.2292 189.184 13.2048 189.287 13.1537C189.35 13.1141 189.4 13.0557 189.429 12.9866C189.463 12.844 189.475 12.6971 189.465 12.551V9.46159C189.474 9.31042 189.462 9.15866 189.429 9.01083C189.394 8.94325 189.339 8.88829 189.271 8.85383C189.174 8.80462 189.065 8.78191 188.956 8.78799H188.803V8.65631H191.268V8.78799H191.115C191 8.78096 190.885 8.80549 190.784 8.8589C190.716 8.89422 190.665 8.95411 190.641 9.02603C190.604 9.16814 190.591 9.31517 190.6 9.46159V12.551C190.591 12.7024 190.605 12.8544 190.641 13.0018C190.676 13.0693 190.731 13.1243 190.799 13.1588C190.897 13.208 191.006 13.2307 191.115 13.2246H191.268Z" fill="white"/>
<path d="M197.419 8.65637V8.78805C197.29 8.79928 197.167 8.84477 197.062 8.91973C196.843 9.1586 196.658 9.42613 196.512 9.71487L195.494 11.4115V12.5511C195.487 12.7022 195.499 12.8536 195.53 13.0018C195.563 13.0683 195.617 13.123 195.682 13.1588C195.775 13.207 195.879 13.2297 195.983 13.2247H196.248V13.3513H193.599V13.2247H193.849C193.964 13.2293 194.077 13.2049 194.18 13.1537C194.242 13.1139 194.291 13.0554 194.318 12.9866C194.357 12.8449 194.37 12.6975 194.358 12.5511V11.609L193.248 9.58319C193.128 9.32668 192.97 9.08941 192.78 8.87921C192.675 8.80289 192.547 8.76526 192.418 8.77285V8.64117H194.684V8.77285H194.582C194.482 8.76247 194.381 8.78186 194.292 8.82857C194.27 8.84217 194.251 8.86063 194.237 8.88256C194.223 8.9045 194.214 8.92932 194.211 8.95518C194.266 9.19123 194.359 9.41694 194.486 9.62371L195.336 11.1431L196.186 9.73007C196.34 9.52479 196.449 9.29033 196.507 9.04128C196.507 9.00953 196.498 8.97846 196.482 8.951C196.466 8.92354 196.443 8.90058 196.416 8.88428C196.281 8.81341 196.13 8.77851 195.978 8.78298V8.6513L197.419 8.65637Z" fill="white"/>
<path d="M200.739 12.0142H199.069L198.87 12.4751C198.815 12.5931 198.782 12.7201 198.773 12.8499C198.771 12.9089 198.785 12.9675 198.814 13.0193C198.842 13.0711 198.885 13.1141 198.936 13.1436C199.085 13.1959 199.242 13.2233 199.4 13.2246V13.3513H197.826V13.2246C197.985 13.2052 198.133 13.1318 198.244 13.017C198.413 12.8018 198.548 12.5629 198.646 12.3079L200.337 8.56012H200.403L202.104 12.4092C202.196 12.6609 202.332 12.8941 202.506 13.098C202.601 13.1768 202.719 13.2214 202.842 13.2246V13.3513H200.556V13.2246H200.647C200.779 13.2362 200.912 13.2098 201.029 13.1487C201.055 13.1308 201.076 13.1064 201.09 13.0779C201.103 13.0494 201.109 13.0179 201.106 12.9866C201.113 12.9447 201.113 12.9019 201.106 12.86C201.079 12.7712 201.045 12.6848 201.004 12.6017L200.739 12.0142ZM200.617 11.761L199.914 10.1302L199.191 11.7458L200.617 11.761Z" fill="white"/>
<path d="M207.807 8.65637V9.92759H207.685C207.638 9.70428 207.553 9.49035 207.436 9.29451C207.34 9.16355 207.212 9.05899 207.064 8.99064C206.915 8.94054 206.757 8.91989 206.6 8.92986H206.249V12.5511C206.24 12.7025 206.254 12.8544 206.29 13.0018C206.324 13.0694 206.38 13.1244 206.448 13.1588C206.545 13.208 206.654 13.2307 206.763 13.2247H206.921V13.3513H204.451V13.2247H204.609C204.722 13.2286 204.834 13.2043 204.935 13.1538C205 13.1144 205.052 13.0561 205.083 12.9866C205.114 12.8436 205.126 12.6972 205.118 12.5511V8.92986H204.777C204.53 8.90958 204.284 8.97982 204.085 9.12738C203.868 9.34201 203.733 9.62488 203.703 9.92759H203.57V8.65637H207.807Z" fill="white"/>
<path d="M211.608 13.2247V13.3513H209.138V13.2247H209.306C209.42 13.2286 209.534 13.2043 209.637 13.1538C209.7 13.1153 209.749 13.0563 209.774 12.9866C209.811 12.8444 209.824 12.6975 209.815 12.5511V9.46165C209.824 9.31022 209.81 9.15828 209.774 9.0109C209.742 8.94346 209.688 8.88835 209.621 8.85389C209.524 8.80513 209.415 8.78244 209.306 8.78805H209.148V8.65637H211.618V8.78805H211.46C211.345 8.78153 211.231 8.80604 211.129 8.85896C211.063 8.89583 211.012 8.95515 210.986 9.02609C210.952 9.16865 210.94 9.3155 210.951 9.46165V12.5511C210.941 12.7022 210.953 12.854 210.986 13.0018C211.024 13.0673 211.078 13.1215 211.144 13.1588C211.242 13.208 211.351 13.2307 211.46 13.2247H211.608Z" fill="white"/>
<path d="M94.7319 42.782L94.7317 42.7821C94.6083 42.8486 94.4691 42.8805 94.329 42.8744H94.204V42.9171H96.921V42.8744H96.7961C96.6626 42.8804 96.5298 42.8524 96.4102 42.793L96.4083 42.7921L96.4083 42.7921C96.3229 42.7453 96.2534 42.6743 96.2088 42.588L96.203 42.5768L96.2045 42.5765C96.1626 42.4063 96.1466 42.2309 96.1571 42.056V38.5142C96.1446 38.339 96.1606 38.1629 96.2046 37.9928L96.2059 37.9878L96.2062 37.9879C96.2401 37.8957 96.3067 37.8192 96.3934 37.7726M94.7319 42.782L96.4181 37.8185M94.7319 42.782C94.818 42.7351 94.8844 42.6588 94.9187 42.5671L94.9192 42.5673L94.9208 42.5602C94.9589 42.3899 94.973 42.2151 94.9628 42.0408V38.4984C94.9712 38.3245 94.9572 38.1502 94.9209 37.9798L94.9228 37.9794L94.9162 37.9667C94.8716 37.8804 94.8021 37.8094 94.7167 37.7626L94.7167 37.7626L94.7148 37.7617C94.5952 37.7023 94.4624 37.6743 94.3289 37.6803H94.204M94.7319 42.782L94.204 37.6803M96.3934 37.7726L96.4181 37.8185M96.3934 37.7726C96.3934 37.7726 96.3934 37.7726 96.3933 37.7726L96.4181 37.8185M96.3934 37.7726C96.5168 37.7061 96.6559 37.6742 96.7961 37.6803M96.4181 37.8185C96.5335 37.7563 96.6638 37.7265 96.7949 37.7324M96.7961 37.6803H96.7949V37.7324M96.7961 37.6803H96.921V37.6376H94.204V37.6803M96.7961 37.6803C96.7964 37.6803 96.7968 37.6803 96.7972 37.6803L96.7949 37.7324M96.7949 37.7324L94.204 37.6803" fill="white" stroke="white" stroke-width="0.104226"/>
<path d="M107.978 37.7757C107.867 37.7276 107.748 37.7006 107.628 37.696V37.6528H109.465L112.113 40.9607L112.206 41.0767V40.9282V38.6272C112.236 38.3977 112.193 38.1646 112.083 37.9608L112.079 37.9543L112.074 37.9489C111.986 37.8605 111.879 37.7931 111.762 37.7519C111.662 37.7171 111.557 37.7017 111.452 37.7064V37.668H113.131V37.7151C112.982 37.7308 112.837 37.7682 112.699 37.8262L112.699 37.8252L112.69 37.8312C112.599 37.8934 112.529 37.9808 112.488 38.0826L112.487 38.0825L112.486 38.0878C112.435 38.2673 112.413 38.4539 112.423 38.6403V43.0538H112.362L108.731 38.606L108.639 38.4927V38.639V42.0343C108.625 42.1544 108.637 42.2761 108.676 42.3909C108.714 42.5067 108.778 42.6126 108.862 42.7012L108.861 42.7017L108.868 42.7068C109.023 42.8248 109.215 42.8858 109.41 42.8795H109.438V42.9222H107.628V42.8825C107.844 42.8883 108.057 42.8193 108.229 42.6863L108.23 42.6876L108.238 42.6772C108.381 42.4949 108.449 42.2652 108.427 42.0349V38.249V38.2307L108.416 38.2165L108.3 38.0707C108.216 37.9532 108.108 37.854 107.985 37.779L107.985 37.7786L107.978 37.7757Z" fill="white" stroke="white" stroke-width="0.104226"/>
<path d="M124.895 38.4967C124.894 38.6173 124.924 38.736 124.983 38.8415L124.983 38.8416L124.986 38.8459C125.09 38.9947 125.22 39.1229 125.371 39.2241L125.371 39.2241L125.373 39.225C125.653 39.3995 125.944 39.5562 126.244 39.6941L126.244 39.6941L126.246 39.6948C126.718 39.8927 127.145 40.1845 127.5 40.5522C127.705 40.8107 127.817 41.1304 127.818 41.4599L127.818 41.4608C127.822 41.6716 127.78 41.8808 127.695 42.074C127.61 42.2673 127.484 42.4401 127.326 42.5807L127.326 42.5807L127.325 42.5815C126.973 42.9089 126.505 43.0858 126.023 43.074L126.021 43.074C125.864 43.0743 125.708 43.0561 125.555 43.0197L125.555 43.0196C125.362 42.9746 125.174 42.9112 124.994 42.8304L124.993 42.8303C124.888 42.7836 124.775 42.7564 124.66 42.7499L124.66 42.7497L124.654 42.7499C124.565 42.7541 124.48 42.7838 124.407 42.8356L124.407 42.8355L124.406 42.8369C124.326 42.8992 124.261 42.9786 124.216 43.0689H124.159V41.1473H124.215C124.302 41.637 124.541 42.0874 124.9 42.4341C125.197 42.7243 125.594 42.8908 126.009 42.8996C126.282 42.9127 126.55 42.8214 126.758 42.6444C126.901 42.5267 126.997 42.362 127.029 42.18C127.061 41.9978 127.027 41.8102 126.932 41.651L126.932 41.651L126.932 41.6504C126.848 41.5128 126.737 41.3926 126.608 41.2964L126.608 41.2964L126.606 41.2956C126.373 41.1319 126.125 40.9896 125.865 40.8706C125.488 40.6961 125.131 40.4824 124.8 40.2331L124.8 40.2331L124.799 40.2326C124.598 40.0866 124.43 39.9009 124.305 39.6872C124.157 39.4087 124.106 39.0898 124.158 38.7793C124.21 38.4685 124.364 38.1834 124.595 37.9679L124.595 37.9679L124.596 37.9678C124.754 37.8189 124.941 37.7035 125.145 37.6285C125.35 37.5534 125.567 37.5203 125.785 37.5311L125.785 37.5312L125.787 37.5312C125.955 37.5303 126.121 37.5518 126.283 37.5951C126.435 37.6385 126.583 37.6947 126.725 37.7633C126.847 37.8325 126.98 37.879 127.119 37.9003L127.119 37.9006L127.124 37.9008C127.162 37.9027 127.2 37.8963 127.235 37.8821C127.27 37.8679 127.302 37.8462 127.328 37.8186L127.328 37.8191L127.333 37.8117C127.386 37.7314 127.423 37.642 127.443 37.5483L127.486 39.2148H127.421C127.352 38.8061 127.148 38.4314 126.842 38.1502C126.571 37.8861 126.209 37.7344 125.83 37.7258C125.584 37.7128 125.342 37.7931 125.153 37.9505C125.073 38.0174 125.008 38.1009 124.963 38.1952C124.919 38.2896 124.895 38.3925 124.895 38.4967ZM124.895 38.4967C124.895 38.4967 124.895 38.4967 124.895 38.4966L124.947 38.497L124.895 38.4968C124.895 38.4968 124.895 38.4968 124.895 38.4967Z" fill="white" stroke="white" stroke-width="0.104226"/>
<path d="M143.264 38.3029L143.264 38.3028L143.261 38.2993C143.147 38.1424 142.995 38.0166 142.819 37.9334L142.819 37.9331L142.813 37.9311C142.643 37.8749 142.465 37.8499 142.286 37.8575H141.885H141.833V37.9097V42.0357C141.822 42.2106 141.838 42.3861 141.88 42.5562L141.879 42.5566L141.885 42.5677C141.929 42.654 141.999 42.7251 142.084 42.7718L142.084 42.7719L142.086 42.7729C142.207 42.8326 142.342 42.8606 142.477 42.8542H142.602V42.8968H139.88V42.8542H140.005C140.145 42.8602 140.284 42.8284 140.407 42.7621C140.495 42.7166 140.562 42.6392 140.595 42.5457L140.595 42.5458L140.596 42.5416C140.64 42.3715 140.656 42.1954 140.644 42.0202V37.9097V37.8575H140.592H140.202C139.906 37.8312 139.611 37.9185 139.378 38.1016L139.378 38.1014L139.373 38.1057C139.13 38.3483 138.973 38.6632 138.926 39.0021H138.871V37.6528H143.595V39.0021H143.547C143.491 38.7554 143.396 38.5192 143.264 38.3029Z" fill="white" stroke="white" stroke-width="0.104226"/>
<path d="M155.002 42.7823L155.002 42.7823L155.004 42.7818C155.089 42.7344 155.153 42.6577 155.185 42.566L155.185 42.5661L155.186 42.5619C155.23 42.3918 155.247 42.2157 155.234 42.0405V38.4987C155.244 38.3238 155.229 38.1484 155.187 37.9782L155.188 37.9779L155.183 37.9678C155.14 37.8795 155.069 37.8074 154.982 37.7621L154.982 37.7621L154.981 37.7618C154.863 37.7023 154.732 37.6743 154.6 37.6803H154.47V37.6376H157.187V37.6803H157.062C156.922 37.675 156.783 37.7068 156.66 37.7725L156.66 37.7724L156.658 37.7732C156.574 37.8213 156.509 37.8966 156.473 37.9866L156.472 37.9865L156.471 37.9928C156.427 38.1629 156.411 38.339 156.423 38.5142V42.056C156.413 42.2309 156.429 42.4063 156.471 42.5765L156.469 42.5768L156.475 42.5879C156.52 42.676 156.592 42.7477 156.681 42.7928L156.681 42.7929C156.799 42.8524 156.93 42.8805 157.062 42.8744H157.187V42.9171H154.47V42.8744H154.6C154.74 42.8792 154.879 42.8475 155.002 42.7823Z" fill="white" stroke="white" stroke-width="0.104226"/>
<path d="M172.496 38.3032L172.496 38.3031L172.493 38.299C172.377 38.1421 172.223 38.0164 172.046 37.9334L172.046 37.933L172.04 37.9311C171.871 37.8745 171.692 37.8496 171.513 37.8575H171.112H171.06V37.9097V42.0357C171.05 42.2106 171.066 42.3861 171.107 42.5562L171.106 42.5566L171.112 42.5677C171.156 42.654 171.226 42.7251 171.311 42.7718L171.311 42.7719L171.313 42.7729C171.435 42.8322 171.569 42.8601 171.704 42.8542H171.829V42.8968H169.107V42.8542H169.237C169.377 42.8589 169.516 42.8272 169.639 42.7621L169.639 42.7621L169.641 42.7612C169.725 42.7131 169.791 42.6379 169.826 42.5478L169.827 42.548L169.829 42.5408C169.87 42.3705 169.884 42.1948 169.871 42.0201V37.9097V37.8575H169.819H169.434C169.137 37.832 168.841 37.919 168.605 38.1014L168.605 38.1011L168.6 38.106C168.359 38.3499 168.202 38.664 168.153 39.0021H168.109V37.6528H172.822V39.0021H172.774C172.72 38.7559 172.626 38.5198 172.496 38.3032Z" fill="white" stroke="white" stroke-width="0.104226"/>
<path d="M185.871 37.7651L185.87 37.7646L185.864 37.7683C185.782 37.816 185.716 37.8875 185.675 37.9735L185.674 37.973L185.671 37.9838C185.626 38.1756 185.608 38.3728 185.619 38.5695V41.1949C185.598 41.5222 185.637 41.8504 185.733 42.164L185.733 42.1642L185.736 42.1712C185.818 42.3431 185.952 42.4855 186.119 42.5789C186.317 42.6957 186.546 42.7526 186.777 42.7428C187.048 42.7506 187.316 42.6793 187.547 42.5376L187.547 42.5375C187.763 42.4051 187.932 42.2091 188.031 41.9767L188.031 41.9768L188.033 41.9722C188.159 41.5792 188.212 41.1664 188.188 40.7545V38.5694C188.197 38.3906 188.17 38.2119 188.108 38.0437L188.109 38.0436L188.107 38.0407C188.064 37.9418 187.991 37.859 187.898 37.804L187.898 37.8036L187.892 37.8009C187.74 37.7366 187.578 37.7037 187.414 37.7043V37.663H189.179V37.7056H189.12C188.979 37.7006 188.839 37.7345 188.716 37.8034L188.716 37.8034L188.715 37.8043C188.601 37.8731 188.515 37.98 188.474 38.1059L188.473 38.1059L188.473 38.1079C188.429 38.261 188.411 38.4206 188.42 38.5797V40.604H188.42L188.42 40.6059C188.436 41.0597 188.394 41.5138 188.295 41.957C188.186 42.2615 187.979 42.5219 187.705 42.6975L187.705 42.6977C187.323 42.9487 186.87 43.0701 186.413 43.0438L186.413 43.0435L186.407 43.0438C186.044 43.0623 185.681 42.9997 185.345 42.8604C185.049 42.732 184.801 42.5132 184.638 42.2358C184.485 41.9121 184.413 41.5562 184.43 41.199L184.43 41.199V41.1966V38.5707C184.45 38.3722 184.441 38.1718 184.403 37.9758L184.402 37.9686L184.399 37.962C184.354 37.8738 184.281 37.8031 184.191 37.7611L184.191 37.761L184.187 37.7595C184.045 37.7066 183.894 37.6823 183.743 37.6878L183.737 37.6528H186.408V37.6955H186.325C186.17 37.6832 186.015 37.7071 185.871 37.7651Z" fill="white" stroke="white" stroke-width="0.104226"/>
<path d="M204.436 38.3032L204.436 38.3031L204.433 38.2994C204.318 38.1409 204.164 38.0148 203.985 37.9332L203.985 37.9329L203.98 37.9312C203.81 37.8738 203.632 37.8489 203.453 37.8575H203.052H203V37.9097V42.0357C202.989 42.2106 203.005 42.3861 203.047 42.5562L203.046 42.5565L203.051 42.5666C203.094 42.655 203.164 42.7271 203.252 42.7724L203.252 42.7727C203.372 42.8328 203.505 42.8609 203.639 42.8542H203.763V42.8968H201.046V42.8542H201.156C201.296 42.8594 201.435 42.8276 201.559 42.762L201.559 42.7617C201.645 42.7148 201.712 42.6386 201.746 42.5468L201.746 42.5469L201.748 42.5416C201.792 42.3715 201.808 42.1954 201.795 42.0202V37.9097V37.8575H201.743H201.353C201.057 37.8312 200.762 37.9185 200.529 38.1016L200.529 38.1014L200.525 38.1057C200.281 38.3483 200.124 38.6632 200.077 39.0021H200.023V37.6528H204.767V39.0021H204.713C204.659 38.7559 204.566 38.5198 204.436 38.3032Z" fill="white" stroke="white" stroke-width="0.104226"/>
<path d="M216.17 42.782L216.17 42.7821C216.046 42.8486 215.907 42.8805 215.767 42.8744H215.642V42.9171H218.359V42.8744H218.234C218.101 42.8804 217.968 42.8524 217.848 42.793L217.846 42.7921L217.846 42.7921C217.761 42.7453 217.691 42.6743 217.647 42.588L217.641 42.5768L217.642 42.5765C217.601 42.4063 217.585 42.2309 217.595 42.056V38.5142C217.583 38.339 217.599 38.1629 217.643 37.9928L217.644 37.9878L217.644 37.9879C217.678 37.8957 217.745 37.8192 217.831 37.7726C217.831 37.7726 217.831 37.7726 217.831 37.7726L217.856 37.8185C217.971 37.7563 218.102 37.7265 218.233 37.7324L216.17 42.782ZM216.17 42.782C216.256 42.7351 216.322 42.6588 216.357 42.5671L216.357 42.5672L216.359 42.5611C216.4 42.3907 216.414 42.2151 216.401 42.0404V38.4988C216.412 38.3245 216.398 38.1494 216.359 37.979L216.36 37.9787L216.354 37.9667C216.31 37.8804 216.24 37.8094 216.155 37.7626L216.155 37.7626L216.153 37.7618C216.034 37.7017 215.9 37.6736 215.767 37.6803H215.642V37.6376H218.359V37.6803H218.234L216.17 42.782Z" fill="white" stroke="white" stroke-width="0.104226"/>
<path d="M0 22.3055H275" stroke="white" stroke-width="0.0521131"/>
<path d="M0 24.7062H275" stroke="white" stroke-width="0.0521131"/>
<path d="M0 27.1119H275" stroke="white" stroke-width="0.0521131"/>
<path d="M0 29.5125H275" stroke="white" stroke-width="0.0521131"/>
<path d="M0 31.9131H275" stroke="white" stroke-width="0.0521131"/>
<path d="M14.4936 0.401001C14.4936 0.401001 6.5542 0.401 6.5542 8.29674V35.9597C6.5542 35.9597 6.5542 43.8554 14.4936 43.8554H42.3093C42.3093 43.8554 50.2537 43.8554 50.2537 35.9597V8.29674C50.2537 8.29674 50.2537 0.401001 42.3093 0.401001H14.4936Z" fill="white"/>
<path d="M14.4936 0.401001C14.4936 0.401001 6.5542 0.401 6.5542 8.29674V35.9597C6.5542 35.9597 6.5542 43.8554 14.4936 43.8554H42.3093C42.3093 43.8554 50.2537 43.8554 50.2537 35.9597V8.29674C50.2537 8.29674 50.2537 0.401001 42.3093 0.401001H14.4936Z" stroke="#1D1D1B" stroke-width="0.0531553"/>
<path d="M15.7302 2.33069C15.7302 2.33069 8.49365 2.33069 8.49365 9.52245V34.7291C8.49365 34.7291 8.49365 41.9259 15.7302 41.9259H41.0761C41.0761 41.9259 48.3075 41.9259 48.3075 34.7291V9.52245C48.3075 9.52245 48.3075 2.33069 41.0761 2.33069H15.7302Z" fill="white"/>
<path d="M15.7302 2.33069C15.7302 2.33069 8.49365 2.33069 8.49365 9.52245V34.7291C8.49365 34.7291 8.49365 41.9259 15.7302 41.9259H41.0761C41.0761 41.9259 48.3075 41.9259 48.3075 34.7291V9.52245C48.3075 9.52245 48.3075 2.33069 41.0761 2.33069H15.7302Z" stroke="#1D1D1B" stroke-width="0.047944"/>
<path d="M26.9847 22.6521L26.9847 22.6521V22.655V22.6854V36.1305H23.8042V22.6854V22.6852V22.6851V22.6849V22.6847V22.6845V22.6844V22.6842V22.684V22.6838V22.6837V22.6835V22.6833V22.6832V22.683V22.6828V22.6826V22.6825V22.6823V22.6822V22.682V22.6818V22.6817V22.6815V22.6813V22.6812V22.681V22.6809V22.6807V22.6805V22.6804V22.6802V22.6801V22.6799V22.6797V22.6796V22.6794V22.6793V22.6791V22.679V22.6788V22.6787V22.6785V22.6784V22.6782V22.6781V22.6779V22.6778V22.6776V22.6775V22.6773V22.6772V22.6771V22.6769V22.6768V22.6766V22.6765V22.6763V22.6762V22.6761V22.6759V22.6758V22.6757V22.6755V22.6754V22.6752V22.6751V22.675V22.6748V22.6747V22.6746V22.6744V22.6743V22.6742V22.674V22.6739V22.6738V22.6737V22.6735V22.6734V22.6733V22.6731V22.673V22.6729V22.6728V22.6726V22.6725V22.6724V22.6723V22.6722V22.672V22.6719V22.6718V22.6717V22.6716V22.6714V22.6713V22.6712V22.6711V22.671V22.6709V22.6707V22.6706V22.6705V22.6704V22.6703V22.6702V22.6701V22.67V22.6698V22.6697V22.6696V22.6695V22.6694V22.6693V22.6692V22.6691V22.669V22.6689V22.6688V22.6687V22.6686V22.6685V22.6683V22.6682V22.6681V22.668V22.6679V22.6678V22.6677V22.6676V22.6675V22.6674V22.6673V22.6672V22.6672V22.6671V22.667V22.6669V22.6668V22.6667V22.6666V22.6665V22.6664V22.6663V22.6662V22.6661V22.666V22.6659V22.6659V22.6658V22.6657V22.6656V22.6655V22.6654V22.6653V22.6652V22.6652V22.6651V22.665V22.6649V22.6648V22.6647V22.6646V22.6646V22.6645V22.6644V22.6643V22.6642V22.6642V22.6641V22.664V22.6639V22.6638V22.6638V22.6637V22.6636V22.6635V22.6635V22.6634V22.6633V22.6632V22.6632V22.6631V22.663V22.6629V22.6629V22.6628V22.6627V22.6627V22.6626V22.6625V22.6624V22.6624V22.6623V22.6622V22.6622V22.6621V22.662V22.662V22.6619V22.6618V22.6618V22.6617V22.6616V22.6616V22.6615V22.6614V22.6614V22.6613V22.6613V22.6612V22.6611V22.6611V22.661V22.661V22.6609V22.6608V22.6608V22.6607V22.6607V22.6606V22.6605V22.6605V22.6604V22.6604V22.6603V22.6603V22.6602V22.6602V22.6601V22.66V22.66V22.6599V22.6599V22.6598V22.6598V22.6597V22.6597V22.6596V22.6596V22.6595V22.6595V22.6594V22.6594V22.6593V22.6593V22.6592V22.6592V22.6591V22.6591V22.659V22.659V22.659V22.6589V22.6589V22.6588V22.6588V22.6587V22.6587V22.6586V22.6586V22.6586V22.6585V22.6585V22.6584V22.6584V22.6584V22.6583V22.6583V22.6582V22.6582V22.6582V22.6581V22.6581V22.658V22.658V22.658V22.6579V22.6579V22.6578V22.6578V22.6578V22.6577V22.6577V22.6577V22.6576V22.6576V22.6576V22.6575V22.6575V22.6575V22.6574V22.6574V22.6574V22.6573V22.6573V22.6573V22.6572V22.6572V22.6572V22.6571V22.6571V22.6571V22.6571V22.657V22.657V22.657V22.6569V22.6569V22.6569V22.6569V22.6568V22.6568V22.6568V22.6568V22.6567V22.6567V22.6567V22.6566V22.6566V22.6566V22.6566V22.6565V22.6565V22.6565V22.6565V22.6565V22.6564V22.6564V22.6564V22.6564V22.6563V22.6563V22.6563V22.6563V22.6563V22.6562V22.6562V22.6562V22.6562V22.6562V22.6561V22.6561V22.6561V22.6561V22.6561V22.656V22.656V22.656V22.656V22.656V22.6559V22.6559V22.6559V22.6559V22.6559V22.6559V22.6558V22.6558V22.6558V22.6558V22.6558V22.6558V22.6558V22.6557V22.6557V22.6557V22.6557V22.6557V22.6557V22.6557V22.6556V22.6556V22.6556V22.6556V22.6556V22.6556V22.6556V22.6556V22.6555V22.6555V22.6555V22.6555V22.6555V22.6555V22.6555V22.6555V22.6555V22.6554V22.6554V22.6554V22.6554V22.6554V22.6554V22.6554V22.6554V22.6554V22.6554V22.6553V22.6553V22.6553V22.6553V22.6553V22.6553V22.6553V22.6553V22.6553V22.6553V22.6553V22.6553V22.6553V22.6552V22.6552V22.6552V22.6552V22.6552V22.6552V22.6552V22.6552V22.6552V22.6552V22.6552V22.6552V22.6552V22.6552V22.6552V22.6552V22.6552V22.6552V22.6551V22.6551V22.6551V22.6551V22.6551V22.6551V22.6551V22.6551V22.6551V22.6551V22.6551V22.6551V22.6551V22.6551V22.6551V22.6551V22.6551V22.6551V22.6551V22.6551V22.6551V22.6551V22.6551V22.6551V22.6551V22.6551V22.6551V22.6551V22.6551V22.6551V22.6551V22.6551V22.655V22.655V22.655V22.655V22.655V22.655V22.655V22.655V22.655V22.655V22.655V22.655V22.655V22.655V22.655V22.655V22.655V22.655V22.655V22.655V22.655V22.655V22.655L23.8043 22.655L23.8041 22.6521C23.792 22.4371 23.8242 22.2219 23.8987 22.0196C23.9731 21.8174 24.0883 21.6323 24.2371 21.4758C24.386 21.3193 24.5654 21.1947 24.7644 21.1094C24.9634 21.0242 25.1777 20.9803 25.3944 20.9803C25.6111 20.9803 25.8255 21.0242 26.0245 21.1094C26.2235 21.1947 26.4028 21.3193 26.5517 21.4758C26.7005 21.6323 26.8157 21.8174 26.8902 22.0196C26.9646 22.2219 26.9968 22.4371 26.9847 22.6521Z" fill="#1D1D1B" stroke="#1D1D1B" stroke-width="0.104226"/>
<path d="M31.267 22.6521L31.2669 22.6521V22.655V22.6854V36.1305H28.0864V22.6854V22.6852V22.6851V22.6849V22.6847V22.6845V22.6844V22.6842V22.684V22.6838V22.6837V22.6835V22.6833V22.6832V22.683V22.6828V22.6826V22.6825V22.6823V22.6822V22.682V22.6818V22.6817V22.6815V22.6813V22.6812V22.681V22.6809V22.6807V22.6805V22.6804V22.6802V22.6801V22.6799V22.6797V22.6796V22.6794V22.6793V22.6791V22.679V22.6788V22.6787V22.6785V22.6784V22.6782V22.6781V22.6779V22.6778V22.6776V22.6775V22.6773V22.6772V22.6771V22.6769V22.6768V22.6766V22.6765V22.6763V22.6762V22.6761V22.6759V22.6758V22.6757V22.6755V22.6754V22.6752V22.6751V22.675V22.6748V22.6747V22.6746V22.6744V22.6743V22.6742V22.674V22.6739V22.6738V22.6737V22.6735V22.6734V22.6733V22.6731V22.673V22.6729V22.6728V22.6726V22.6725V22.6724V22.6723V22.6722V22.672V22.6719V22.6718V22.6717V22.6716V22.6714V22.6713V22.6712V22.6711V22.671V22.6709V22.6707V22.6706V22.6705V22.6704V22.6703V22.6702V22.6701V22.67V22.6698V22.6697V22.6696V22.6695V22.6694V22.6693V22.6692V22.6691V22.669V22.6689V22.6688V22.6687V22.6686V22.6685V22.6683V22.6682V22.6681V22.668V22.6679V22.6678V22.6677V22.6676V22.6675V22.6674V22.6673V22.6672V22.6672V22.6671V22.667V22.6669V22.6668V22.6667V22.6666V22.6665V22.6664V22.6663V22.6662V22.6661V22.666V22.6659V22.6659V22.6658V22.6657V22.6656V22.6655V22.6654V22.6653V22.6652V22.6652V22.6651V22.665V22.6649V22.6648V22.6647V22.6646V22.6646V22.6645V22.6644V22.6643V22.6642V22.6642V22.6641V22.664V22.6639V22.6638V22.6638V22.6637V22.6636V22.6635V22.6635V22.6634V22.6633V22.6632V22.6632V22.6631V22.663V22.6629V22.6629V22.6628V22.6627V22.6627V22.6626V22.6625V22.6624V22.6624V22.6623V22.6622V22.6622V22.6621V22.662V22.662V22.6619V22.6618V22.6618V22.6617V22.6616V22.6616V22.6615V22.6614V22.6614V22.6613V22.6613V22.6612V22.6611V22.6611V22.661V22.661V22.6609V22.6608V22.6608V22.6607V22.6607V22.6606V22.6605V22.6605V22.6604V22.6604V22.6603V22.6603V22.6602V22.6602V22.6601V22.66V22.66V22.6599V22.6599V22.6598V22.6598V22.6597V22.6597V22.6596V22.6596V22.6595V22.6595V22.6594V22.6594V22.6593V22.6593V22.6592V22.6592V22.6591V22.6591V22.659V22.659V22.659V22.6589V22.6589V22.6588V22.6588V22.6587V22.6587V22.6586V22.6586V22.6586V22.6585V22.6585V22.6584V22.6584V22.6584V22.6583V22.6583V22.6582V22.6582V22.6582V22.6581V22.6581V22.658V22.658V22.658V22.6579V22.6579V22.6578V22.6578V22.6578V22.6577V22.6577V22.6577V22.6576V22.6576V22.6576V22.6575V22.6575V22.6575V22.6574V22.6574V22.6574V22.6573V22.6573V22.6573V22.6572V22.6572V22.6572V22.6571V22.6571V22.6571V22.6571V22.657V22.657V22.657V22.6569V22.6569V22.6569V22.6569V22.6568V22.6568V22.6568V22.6568V22.6567V22.6567V22.6567V22.6566V22.6566V22.6566V22.6566V22.6565V22.6565V22.6565V22.6565V22.6565V22.6564V22.6564V22.6564V22.6564V22.6563V22.6563V22.6563V22.6563V22.6563V22.6562V22.6562V22.6562V22.6562V22.6562V22.6561V22.6561V22.6561V22.6561V22.6561V22.656V22.656V22.656V22.656V22.656V22.6559V22.6559V22.6559V22.6559V22.6559V22.6559V22.6558V22.6558V22.6558V22.6558V22.6558V22.6558V22.6558V22.6557V22.6557V22.6557V22.6557V22.6557V22.6557V22.6557V22.6556V22.6556V22.6556V22.6556V22.6556V22.6556V22.6556V22.6556V22.6555V22.6555V22.6555V22.6555V22.6555V22.6555V22.6555V22.6555V22.6555V22.6554V22.6554V22.6554V22.6554V22.6554V22.6554V22.6554V22.6554V22.6554V22.6554V22.6553V22.6553V22.6553V22.6553V22.6553V22.6553V22.6553V22.6553V22.6553V22.6553V22.6553V22.6553V22.6553V22.6552V22.6552V22.6552V22.6552V22.6552V22.6552V22.6552V22.6552V22.6552V22.6552V22.6552V22.6552V22.6552V22.6552V22.6552V22.6552V22.6552V22.6552V22.6551V22.6551V22.6551V22.6551V22.6551V22.6551V22.6551V22.6551V22.6551V22.6551V22.6551V22.6551V22.6551V22.6551V22.6551V22.6551V22.6551V22.6551V22.6551V22.6551V22.6551V22.6551V22.6551V22.6551V22.6551V22.6551V22.6551V22.6551V22.6551V22.6551V22.6551V22.6551V22.655V22.655V22.655V22.655V22.655V22.655V22.655V22.655V22.655V22.655V22.655V22.655V22.655V22.655V22.655V22.655V22.655V22.655V22.655V22.655V22.655V22.655V22.655L28.0865 22.655L28.0863 22.6521C28.0743 22.4371 28.1065 22.2219 28.1809 22.0196C28.2554 21.8174 28.3705 21.6323 28.5194 21.4758C28.6682 21.3193 28.8476 21.1947 29.0466 21.1094C29.2456 21.0242 29.46 20.9803 29.6766 20.9803C29.8933 20.9803 30.1077 21.0242 30.3067 21.1094C30.5057 21.1947 30.6851 21.3193 30.8339 21.4758C30.9828 21.6323 31.0979 21.8174 31.1724 22.0196C31.2468 22.2219 31.279 22.4371 31.267 22.6521Z" fill="#1D1D1B" stroke="#1D1D1B" stroke-width="0.104226"/>
<path d="M35.5551 22.6521L35.555 22.6521V22.655V22.6552V22.6554V22.6556V22.6557V22.6559V22.6561V22.6563V22.6564V22.6566V22.6568V22.6569V22.6571V22.6573V22.6574V22.6576V22.6578V22.6579V22.6581V22.6583V22.6584V22.6586V22.6588V22.6589V22.6591V22.6593V22.6594V22.6596V22.6597V22.6599V22.6601V22.6602V22.6604V22.6605V22.6607V22.6608V22.661V22.6611V22.6613V22.6614V22.6616V22.6618V22.6619V22.6621V22.6622V22.6623V22.6625V22.6626V22.6628V22.6629V22.6631V22.6632V22.6634V22.6635V22.6637V22.6638V22.6639V22.6641V22.6642V22.6644V22.6645V22.6646V22.6648V22.6649V22.6651V22.6652V22.6653V22.6655V22.6656V22.6657V22.6659V22.666V22.6661V22.6663V22.6664V22.6665V22.6666V22.6668V22.6669V22.667V22.6672V22.6673V22.6674V22.6675V22.6677V22.6678V22.6679V22.668V22.6682V22.6683V22.6684V22.6685V22.6686V22.6688V22.6689V22.669V22.6691V22.6692V22.6693V22.6695V22.6696V22.6697V22.6698V22.6699V22.67V22.6701V22.6703V22.6704V22.6705V22.6706V22.6707V22.6708V22.6709V22.671V22.6711V22.6712V22.6713V22.6715V22.6716V22.6717V22.6718V22.6719V22.672V22.6721V22.6722V22.6723V22.6724V22.6725V22.6726V22.6727V22.6728V22.6729V22.673V22.6731V22.6732V22.6733V22.6734V22.6735V22.6736V22.6737V22.6738V22.6738V22.6739V22.674V22.6741V22.6742V22.6743V22.6744V22.6745V22.6746V22.6747V22.6748V22.6748V22.6749V22.675V22.6751V22.6752V22.6753V22.6754V22.6754V22.6755V22.6756V22.6757V22.6758V22.6759V22.6759V22.676V22.6761V22.6762V22.6763V22.6764V22.6764V22.6765V22.6766V22.6767V22.6767V22.6768V22.6769V22.677V22.677V22.6771V22.6772V22.6773V22.6773V22.6774V22.6775V22.6776V22.6776V22.6777V22.6778V22.6778V22.6779V22.678V22.6781V22.6781V22.6782V22.6783V22.6783V22.6784V22.6785V22.6785V22.6786V22.6787V22.6787V22.6788V22.6789V22.6789V22.679V22.679V22.6791V22.6792V22.6792V22.6793V22.6794V22.6794V22.6795V22.6795V22.6796V22.6797V22.6797V22.6798V22.6798V22.6799V22.6799V22.68V22.6801V22.6801V22.6802V22.6802V22.6803V22.6803V22.6804V22.6804V22.6805V22.6805V22.6806V22.6806V22.6807V22.6808V22.6808V22.6809V22.6809V22.681V22.681V22.6811V22.6811V22.6811V22.6812V22.6812V22.6813V22.6813V22.6814V22.6814V22.6815V22.6815V22.6816V22.6816V22.6817V22.6817V22.6817V22.6818V22.6818V22.6819V22.6819V22.682V22.682V22.682V22.6821V22.6821V22.6822V22.6822V22.6822V22.6823V22.6823V22.6824V22.6824V22.6824V22.6825V22.6825V22.6825V22.6826V22.6826V22.6827V22.6827V22.6827V22.6828V22.6828V22.6828V22.6829V22.6829V22.6829V22.683V22.683V22.683V22.6831V22.6831V22.6831V22.6832V22.6832V22.6832V22.6833V22.6833V22.6833V22.6833V22.6834V22.6834V22.6834V22.6835V22.6835V22.6835V22.6835V22.6836V22.6836V22.6836V22.6837V22.6837V22.6837V22.6837V22.6838V22.6838V22.6838V22.6838V22.6839V22.6839V22.6839V22.6839V22.684V22.684V22.684V22.684V22.684V22.6841V22.6841V22.6841V22.6841V22.6842V22.6842V22.6842V22.6842V22.6842V22.6843V22.6843V22.6843V22.6843V22.6843V22.6844V22.6844V22.6844V22.6844V22.6844V22.6844V22.6845V22.6845V22.6845V22.6845V22.6845V22.6845V22.6846V22.6846V22.6846V22.6846V22.6846V22.6846V22.6847V22.6847V22.6847V22.6847V22.6847V22.6847V22.6847V22.6848V22.6848V22.6848V22.6848V22.6848V22.6848V22.6848V22.6849V22.6849V22.6849V22.6849V22.6849V22.6849V22.6849V22.6849V22.6849V22.685V22.685V22.685V22.685V22.685V22.685V22.685V22.685V22.685V22.685V22.6851V22.6851V22.6851V22.6851V22.6851V22.6851V22.6851V22.6851V22.6851V22.6851V22.6851V22.6851V22.6852V22.6852V22.6852V22.6852V22.6852V22.6852V22.6852V22.6852V22.6852V22.6852V22.6852V22.6852V22.6852V22.6852V22.6852V22.6852V22.6853V22.6853V22.6853V22.6853V22.6853V22.6853V22.6853V22.6853V22.6853V22.6853V22.6853V22.6853V22.6853V22.6853V22.6853V22.6853V22.6853V22.6853V22.6853V22.6853V22.6853V22.6853V22.6853V22.6853V22.6853V22.6854V22.6854V22.6854V22.6854V22.6854V22.6854V22.6854V22.6854V22.6854V22.6854V22.6854V22.6854V22.6854V22.6854V22.6854V22.6854V22.6854V22.6854V22.6854V22.6854V22.6854V22.6854V22.6854V22.6854V36.1305H32.3745V22.6854V22.655H32.3746L32.3744 22.6521C32.3624 22.4371 32.3945 22.2219 32.469 22.0196C32.5435 21.8174 32.6586 21.6323 32.8075 21.4758C32.9563 21.3193 33.1357 21.1947 33.3347 21.1094C33.5337 21.0242 33.7481 20.9803 33.9647 20.9803C34.1814 20.9803 34.3958 21.0242 34.5948 21.1094C34.7938 21.1947 34.9732 21.3193 35.122 21.4758C35.2708 21.6323 35.386 21.8174 35.4605 22.0196C35.5349 22.2219 35.5671 22.4371 35.5551 22.6521Z" fill="#1D1D1B" stroke="#1D1D1B" stroke-width="0.104226"/>
<path d="M22.7377 11.3405V8.07385H15.5826H12.6391H12.2979V18.117H12.3029L17.3141 23.0955V36.1825H20.5988V21.7382H20.5937L15.5826 16.7597V11.3405H22.7377Z" fill="#1D1D1B"/>
<path d="M29.2357 11.3406L26.2871 16.4154H32.1792L29.2357 11.3406Z" fill="#1D1D1B"/>
<path d="M39.778 8.10424V8.06372H29.2363V11.3304H39.284C39.674 11.3535 40.0512 11.4776 40.3781 11.6904C40.705 11.9032 40.9702 12.1973 41.1475 12.5436C41.3249 12.8898 41.4081 13.2761 41.3889 13.6642C41.3697 14.0523 41.2488 14.4287 41.0383 14.756C40.8277 15.0833 40.5347 15.3501 40.1884 15.53C39.8421 15.7099 39.4545 15.7967 39.0641 15.7817C38.6737 15.7666 38.2941 15.6503 37.9628 15.4443C37.6315 15.2383 37.3602 14.9497 37.1757 14.6072H33.9215C34.1437 15.558 34.624 16.43 35.3102 17.128C35.9964 17.826 36.862 18.3234 37.8128 18.5659C38.7636 18.8083 39.763 18.7866 40.7023 18.5031C41.6415 18.2196 42.4845 17.6852 43.1394 16.958C43.7942 16.2309 44.2359 15.3389 44.4161 14.3793C44.5964 13.4198 44.5083 12.4294 44.1616 11.5162C43.8149 10.6029 43.2228 9.80186 42.4498 9.20023C41.6769 8.5986 40.7527 8.2195 39.778 8.10424Z" fill="#1D1D1B"/>
<path d="M65.002 29.4364V25.9621C65.002 23.3386 65.204 21.6065 65.608 20.7658C66.012 19.9251 66.8489 19.503 68.1186 19.4996C69.3052 19.4996 70.0996 19.9403 70.4969 20.8114C70.8941 21.6825 71.0927 23.4095 71.0927 25.9823V29.4364C71.0927 31.8117 70.8788 33.4375 70.451 34.3035C70.0232 35.1696 69.2135 35.6102 68.0371 35.6102C66.8608 35.6102 66.0256 35.1898 65.6182 34.3592C65.2108 33.5286 65.002 31.9079 65.002 29.4364ZM67.314 26.0178V28.9198C67.314 30.4392 67.5635 31.1938 68.0728 31.1938C68.582 31.1938 68.7807 30.4291 68.7807 28.8996V25.9165V25.2378V24.7719C68.7501 24.1186 68.5158 23.7894 68.0779 23.7894C67.6399 23.7894 67.314 24.5339 67.314 26.0178Z" fill="white"/>
<path d="M81.9243 19.7529V23.8907L78.0947 31.1838H79.9535V29.0111H81.9192V35.357H75.8081V31.1838L79.6938 23.7439H77.9164V25.5924H76.1086V19.7529H81.9243Z" fill="white"/>
<path d="M86.8892 29.4364V25.9621C86.8892 23.3386 87.0929 21.6065 87.5003 20.7658C87.9077 19.9251 88.7429 19.503 90.0058 19.4996C91.1924 19.4996 91.9868 19.9403 92.3841 20.8114C92.7813 21.6825 92.9799 23.4095 92.9799 25.9823V29.4364C92.9799 31.8117 92.766 33.4375 92.3382 34.3035C91.9105 35.1696 91.1058 35.6102 89.9243 35.6102C88.7429 35.6102 87.8873 35.1898 87.5054 34.3592C87.1234 33.5286 86.8892 31.908 86.8892 29.4364ZM89.2012 26.0178V28.9198C89.2012 30.4392 89.4507 31.1938 89.96 31.1938C90.4693 31.1938 90.673 30.4291 90.673 28.8996V25.9165L90.6475 25.2378V24.7719C90.6169 24.1186 90.3827 23.7894 89.9447 23.7894C89.5068 23.7894 89.2012 24.5339 89.2012 26.0178Z" fill="white"/>
<path d="M103.925 19.7529V25.9925H101.852L101.887 24.7011C101.887 24.0933 101.658 23.7894 101.195 23.7894C100.584 23.7894 100.278 25.1315 100.278 27.8411C100.278 30.0155 100.568 31.101 101.149 31.0977C101.618 31.0977 101.852 30.5912 101.852 29.5428V29.0364H101.129V26.7472H104.77V29.011H103.919V35.357H102.87L102.432 34.0554L102.361 34.2276C102.237 34.6319 101.984 34.9852 101.64 35.2345C101.297 35.4838 100.882 35.6156 100.456 35.6102C99.4685 35.6102 98.8132 35.2439 98.4907 34.5112C98.1682 33.7785 97.9984 32.2963 97.9814 30.0645V25.6532C97.9814 23.2576 98.1444 21.637 98.4907 20.781C98.6156 20.3908 98.8676 20.053 99.2069 19.821C99.5463 19.5889 99.9537 19.4759 100.365 19.4997C100.711 19.4641 101.059 19.5499 101.348 19.7423C101.637 19.9346 101.849 20.2215 101.949 20.5531V19.7529H103.925Z" fill="white"/>
<path d="M113.122 19.7529V23.7439H112.297V31.1838H113.122V35.357H109.317V31.1838H110.102V23.7439H109.317V19.7529H113.122Z" fill="white"/>
<path d="M125.836 29.5378C125.923 30.414 125.964 31.1635 125.964 31.7814C125.964 34.2428 125.373 35.4735 124.191 35.4735C123.068 35.4735 122.504 34.1922 122.501 31.6295V30.6165V29.5783C122.501 28.6413 122.047 28.1703 121.146 28.1703H120.937V31.2091H121.762V35.3823H117.958V31.1838H118.742V23.7439H117.958V19.7529H121.523C122.816 19.7529 123.682 20.0298 124.12 20.5835C124.558 21.1373 124.777 22.2329 124.777 23.8705C124.777 25.8558 124.168 26.9953 122.949 27.2891L122.73 27.3499C123.748 27.5221 124.319 27.9931 124.375 28.7528L124.431 29.8315L124.477 30.6874C124.504 31.123 124.626 31.3408 124.843 31.3408C125.159 31.3408 125.317 30.8343 125.317 29.8214V29.5682L125.836 29.5378ZM120.963 26.6256H121.217C122.195 26.6256 122.689 26.1749 122.689 25.2734C122.689 24.2604 122.21 23.754 121.263 23.754C121.202 23.754 121.1 23.754 120.963 23.754V26.6256Z" fill="white"/>
<path d="M136.023 19.7529V25.2531H133.935L133.904 24.8429C133.858 24.1338 133.655 23.7793 133.303 23.7793C132.952 23.7793 132.662 24.0477 132.662 24.5896C132.662 25.2075 133.033 25.7444 133.777 26.2002C134.948 26.9362 135.693 27.6115 136.013 28.226C136.328 28.8338 136.486 29.8923 136.486 31.4117C136.486 34.2242 135.766 35.6305 134.327 35.6305C133.553 35.6305 132.931 35.1764 132.463 34.2681V35.3773H130.497V29.4263H132.463V29.6542C132.463 30.6672 132.738 31.1736 133.283 31.1736C133.828 31.1736 134.042 30.814 134.042 30.0898C134.058 29.7558 133.987 29.4232 133.836 29.1248C133.684 28.8264 133.456 28.5725 133.176 28.3881L132.03 27.598C130.879 26.8113 130.304 25.5198 130.304 23.7236C130.304 20.8874 131.005 19.4693 132.407 19.4693C133.105 19.4693 133.655 19.9251 134.062 20.8317V19.7529H136.023Z" fill="white"/>
<path d="M148.327 31.1838V35.357H144.523V31.1838H145.338L145.093 29.0718H143.392L143.143 31.1838H144.024V35.357H140.851V31.1838H141.574L143.143 19.7529H146.035L147.645 31.1838H148.327ZM144.874 27.4714L144.243 22.6701L143.611 27.4714H144.874Z" fill="white"/>
<path d="M161.007 19.7529V23.7439H160.233V35.357H157.835L155.187 23.0348V31.1838H156.083V35.357H152.91V31.1838H153.694V23.7439H152.91V19.7529H156.383L158.741 30.6571V23.7439H157.835V19.7529H161.007Z" fill="white"/>
<path d="M165.834 29.4364V25.9621C165.834 23.3386 166.036 21.6065 166.44 20.7658C166.844 19.9251 167.681 19.503 168.951 19.4996C170.137 19.4996 170.932 19.9403 171.329 20.8114C171.726 21.6825 171.925 23.4095 171.925 25.9823V29.4364C171.925 31.8117 171.711 33.4375 171.283 34.3035C170.855 35.1696 170.046 35.6102 168.869 35.6102C167.693 35.6102 166.832 35.1898 166.45 34.3592C166.068 33.5286 165.834 31.908 165.834 29.4364ZM168.146 26.0178V28.9198C168.146 30.4392 168.396 31.1938 168.905 31.1938C169.414 31.1938 169.613 30.4291 169.613 28.8996V25.9165V25.2378V24.7719C169.582 24.1186 169.348 23.7894 168.91 23.7894C168.472 23.7894 168.146 24.5339 168.146 26.0178Z" fill="white"/>
<path d="M184.068 31.1838V35.357H180.279V31.1838H181.093L180.854 29.0718H179.153L178.899 31.1838H179.769V35.357H176.597V31.1838H177.32L178.883 19.7529H181.806L183.416 31.1838H184.068ZM180.62 27.4714L179.988 22.6701L179.331 27.4714H180.62Z" fill="white"/>
<path d="M195.295 19.7529V26.6459H193.966V23.7439H192.948V31.1838H193.696V35.357H189.892V31.1838H190.753V23.7439H189.699V26.6459H188.364V19.7529H195.295Z" fill="white"/>
<path d="M206.367 28.145V35.357H199.884V31.1838H200.648V23.7439H199.884V19.7529H203.703V23.7439H202.878V31.1838H204.406V28.145H206.367Z" fill="white"/>
<path d="M211.153 29.4364V25.9621C211.153 23.3386 211.352 21.6065 211.759 20.7658C212.167 19.9251 213.002 19.4996 214.265 19.4996C215.528 19.4996 216.246 19.9403 216.648 20.8114C217.051 21.6825 217.244 23.4095 217.244 25.9823V29.4364C217.244 31.8117 217.03 33.4375 216.597 34.3035C216.164 35.1696 215.365 35.6102 214.183 35.6102C213.002 35.6102 212.177 35.1898 211.764 34.3592C211.352 33.5286 211.153 31.908 211.153 29.4364ZM213.46 26.0178V28.9198C213.46 30.4392 213.715 31.1938 214.219 31.1938C214.723 31.1938 214.932 30.4291 214.932 28.8996V25.9165V25.2378V24.7719C214.901 24.1186 214.672 23.7894 214.234 23.7894C213.796 23.7894 213.46 24.5339 213.46 26.0178Z" fill="white"/>
<path d="M229.085 19.7529V23.7439H228.398L226.62 28.4286V31.1838H227.394V35.357H223.585V31.1838H224.425V28.4286L222.495 23.7439H221.899V19.7529H225.393V23.7439H224.792L225.632 26.4281L226.62 23.7439H225.897V19.7529H229.085Z" fill="white"/>
<path d="M237.477 19.7529V23.7439H236.647V31.1838H237.477V35.357H233.673V31.1838H234.452V23.7439H233.673V19.7529H237.477Z" fill="white"/>
<path d="M249.639 19.7529V23.7439H248.87V31.1838H249.639V35.357H246.308V31.1838H246.675V28.145H245.295V31.1838H245.676V35.357H242.341V31.1838H243.1V23.7439H242.341V19.7529H245.676V23.7439H245.295V26.5446H246.675V23.7439H246.308V19.7529H249.639Z" fill="white"/>
<path d="M261.713 31.1838V35.357H257.909V31.1838H258.703L258.459 29.0718H256.758L256.508 31.1838H257.395V35.357H254.217V31.1838H254.945L256.529 19.7529H259.421L261.031 31.1838H261.713ZM258.265 27.4714L257.629 22.6701L256.977 27.4714H258.265Z" fill="white"/>
<path d="M72.1714 23.2475V21.176C72.1714 19.1029 72.8266 18.0107 74.1371 17.8992V19.0286C73.8923 19.1462 73.6913 19.338 73.5631 19.5765C73.435 19.815 73.3863 20.0878 73.4242 20.3556H74.1371V23.2475H72.1714Z" fill="white"/>
<path d="M105.273 23.2475V21.176C105.273 19.1029 105.929 18.0107 107.239 17.8992V19.0286C106.994 19.1462 106.793 19.338 106.665 19.5765C106.537 19.815 106.488 20.0878 106.526 20.3556H107.239V23.2475H105.273Z" fill="white"/>
</svg>
