<?xml version="1.0" encoding="UTF-8"?>
<svg id="Layer_1" data-name="Layer 1" xmlns="http://www.w3.org/2000/svg" xmlns:xlink="http://www.w3.org/1999/xlink" viewBox="0 0 841.89 595.28">
  <defs>
    <style>
      .cls-1 {
        fill: url(#linear-gradient);
      }

      .cls-1, .cls-2, .cls-3, .cls-4, .cls-5, .cls-6, .cls-7, .cls-8, .cls-9, .cls-10, .cls-11, .cls-12, .cls-13 {
        stroke-width: 0px;
      }

      .cls-2 {
        fill: gray;
      }

      .cls-2, .cls-3, .cls-4, .cls-6, .cls-8, .cls-9, .cls-11, .cls-13 {
        fill-rule: evenodd;
      }

      .cls-3 {
        fill: #343434;
      }

      .cls-4 {
        fill: #e50001;
      }

      .cls-5 {
        fill: #1a1a1a;
      }

      .cls-6 {
        fill: #4d4d4d;
      }

      .cls-7 {
        fill: none;
      }

      .cls-14 {
        clip-path: url(#clippath-1);
      }

      .cls-8 {
        fill: #cc0001;
      }

      .cls-9 {
        fill: #676767;
      }

      .cls-10 {
        fill: #fff;
      }

      .cls-11 {
        fill: #a40000;
      }

      .cls-15 {
        clip-path: url(#clippath);
      }

      .cls-12 {
        fill: #ff0001;
      }

      .cls-13 {
        fill: #b20001;
      }
    </style>
    <clipPath id="clippath">
      <rect class="cls-7" x="354.25" y="322.71" width="439.75" height="70.51"/>
    </clipPath>
    <linearGradient id="linear-gradient" x1="782.96" y1="357.96" x2="382.58" y2="357.96" gradientUnits="userSpaceOnUse">
      <stop offset="0" stop-color="#ff0001"/>
      <stop offset="1" stop-color="#343434"/>
    </linearGradient>
    <clipPath id="clippath-1">
      <rect class="cls-7" x="354.25" y="322.71" width="439.75" height="70.51"/>
    </clipPath>
  </defs>
  <path class="cls-5" d="m179.62,269.62l43.11.76v-51.63l-43.11,50.87Zm43.11,21.67l-59.91-1.09-86.28,103.45h-28.7l178.06-212.14h16.62l.85,166.08-20.64-14.31v-41.99Z"/>
  <path class="cls-12" d="m726.55,305.72h17.22v-42.4c0-11.67,6.97-18.64,16.93-18.64s16.08,6.69,16.08,18.36v130.18h17.22v-135.31c0-17.5-9.82-28.89-26.75-28.89-11.67,0-18.64,6.12-23.48,13.23v-52.19l-17.22,16.05v99.61Z"/>
  <path class="cls-12" d="m680.02,307.43c14.66,0,23.34-5.83,30.74-14.09l-10.39-10.25c-5.41,5.55-11.38,9.39-19.49,9.39-13.23,0-22.48-10.82-22.48-24.19s9.11-24.19,21.63-24.19c8.68,0,14.23,3.84,19.49,9.39l10.67-11.53c-6.97-7.68-15.79-12.95-30.02-12.95-22.48,0-38.99,17.93-38.99,39.27s16.51,39.13,38.85,39.13"/>
  <path class="cls-12" d="m593.79,307.43c13.8,0,23.62-5.55,30.74-14.09l-10.1-8.96c-5.98,5.83-11.95,8.96-20.35,8.96-11.1,0-19.78-6.83-21.63-19.07h55.21c.14-.85.28-3.7.28-4.84,0-21.63-12.09-40.41-36-40.41-21.49,0-36.71,17.64-36.71,39.13,0,23.48,16.79,39.27,38.56,39.27m-21.49-44.54c1.56-11.67,8.96-19.78,19.49-19.78,11.38,0,17.93,8.68,19.07,19.78h-38.56Z"/>
  <path class="cls-12" d="m665.5,206.12h48.66l17.67-16.22h-50.1l-16.22,16.22Zm-155.66,99.61h17.64v-99.61h115.08l16.22-16.22h-211.93l-8.56,16.22h71.56v99.61Z"/>
  <path class="cls-5" d="m448.65,307.43c23.19,0,40.27-17.79,40.27-39.13s-16.93-39.27-39.98-39.27-40.13,17.79-40.13,39.27,16.93,39.13,39.84,39.13m.28-14.94c-13.38,0-22.91-11.1-22.91-24.19s8.82-24.19,22.63-24.19,23.05,10.96,23.05,24.19-8.82,24.19-22.77,24.19Z"/>
  <path class="cls-5" d="m354.58,305.72h17.22v-28.6c0-19.92,10.53-29.74,25.61-29.74h1v-18.21c-13.23-.57-21.91,7.11-26.61,18.36v-16.93h-17.22v75.13Z"/>
  <path class="cls-5" d="m320.83,282.1c-5.19,5.09-10.96,8.55-18.65,8.55-13.23,0-22.48-10.81-22.48-24.19s9.11-24.19,21.63-24.19c8.64,0,14.18,3.81,19.43,9.32l.08,30.51Zm-19.51,23.49c8.06,0,14.31-1.76,19.54-4.73v78.57l-67.19-46.41.12,21.92,84.15,59.25v-185.44h-17.22v2.79c-5.17-2.74-11.38-4.35-19.26-4.35-22.48,0-38.99,17.93-38.99,39.27s16.51,39.13,38.85,39.13Z"/>
  <g class="cls-15">
    <rect class="cls-1" x="354.25" y="322.71" width="439.75" height="70.51"/>
  </g>
  <g class="cls-14">
    <polygon class="cls-3" points="343.56 322.71 454.58 322.57 496.72 393.22 343.56 393.22 343.56 322.71"/>
    <polygon class="cls-11" points="661.93 322.63 454.58 322.57 496.72 393.22 621.11 393.22 661.93 322.63"/>
    <polygon class="cls-12" points="661.88 322.71 794 322.71 794 393.22 661.22 393.22 661.88 322.71"/>
    <polygon class="cls-9" points="392.39 358.48 382.02 376.43 371.65 394.39 392.39 394.39 413.12 394.39 402.75 376.43 392.39 358.48"/>
    <polygon class="cls-3" points="350.92 358.48 361.29 376.43 371.65 394.39 350.92 394.39 330.19 394.39 340.56 376.43 350.92 358.48"/>
    <polygon class="cls-8" points="516.77 358.48 527.14 376.43 537.51 394.39 516.77 394.39 496.04 394.39 506.41 376.43 516.77 358.48"/>
    <polygon class="cls-6" points="475.31 358.48 464.95 340.52 454.58 322.57 475.31 322.57 496.04 322.57 485.68 340.52 475.31 358.48"/>
    <polygon class="cls-8" points="558.24 358.48 547.87 340.52 537.51 322.57 558.24 322.57 578.97 322.57 568.6 340.52 558.24 358.48"/>
    <polygon class="cls-2" points="413.08 394.44 402.72 376.49 392.35 358.54 413.08 358.54 433.81 358.54 423.45 376.49 413.08 394.44"/>
    <polygon class="cls-2" points="454.55 322.63 464.91 340.58 475.28 358.54 454.55 358.54 433.81 358.54 444.18 340.58 454.55 322.63"/>
    <polygon class="cls-13" points="496.01 394.44 485.64 376.49 475.28 358.54 496.01 358.54 516.74 358.54 506.38 376.49 496.01 394.44"/>
    <polygon class="cls-13" points="537.47 322.63 547.84 340.58 558.2 358.54 537.47 358.54 516.74 358.54 527.11 340.58 537.47 322.63"/>
    <polygon class="cls-4" points="765.55 358.48 775.92 376.43 786.28 394.39 765.55 394.39 744.82 394.39 755.19 376.43 765.55 358.48"/>
    <polygon class="cls-8" points="724.09 358.48 713.73 376.43 703.36 394.39 724.09 394.39 744.82 394.39 734.46 376.43 724.09 358.48"/>
    <polygon class="cls-13" points="641.16 358.48 630.8 376.43 620.43 394.39 641.16 394.39 661.9 394.39 651.53 376.43 641.16 358.48"/>
    <polygon class="cls-6" points="599.7 358.48 610.07 376.43 620.43 394.39 599.7 394.39 578.97 394.39 589.34 376.43 599.7 358.48"/>
    <polygon class="cls-8" points="682.63 358.48 692.99 340.52 703.36 322.57 682.63 322.57 661.9 322.57 672.26 340.52 682.63 358.48"/>
    <polygon class="cls-8" points="599.7 358.48 610.07 340.52 620.43 322.57 599.7 322.57 578.97 322.57 589.34 340.52 599.7 358.48"/>
    <polygon class="cls-8" points="744.86 322.63 755.22 340.58 765.59 358.54 744.86 358.54 724.12 358.54 734.49 340.58 744.86 322.63"/>
    <polygon class="cls-4" points="703.39 394.44 693.03 376.49 682.66 358.54 703.39 358.54 724.12 358.54 713.76 376.49 703.39 394.44"/>
    <polygon class="cls-8" points="661.93 394.44 672.3 376.49 682.66 358.54 661.93 358.54 641.2 358.54 651.56 376.49 661.93 394.44"/>
    <polygon class="cls-13" points="661.93 322.63 672.3 340.58 682.66 358.54 661.93 358.54 641.2 358.54 651.56 340.58 661.93 322.63"/>
    <polygon class="cls-8" points="620.47 394.44 610.1 376.49 599.74 358.54 620.47 358.54 641.2 358.54 630.83 376.49 620.47 394.44"/>
    <polygon class="cls-4" points="620.47 322.63 610.1 340.58 599.74 358.54 620.47 358.54 641.2 358.54 630.83 340.58 620.47 322.63"/>
  </g>
  <path class="cls-10" d="m749.58,357.44v-7.75h5.9c2.89,0,4.67,1.31,4.67,3.86,0,2.35-1.66,3.9-4.55,3.9h-6.02Zm-5.94,13.89h5.94v-8.64h4.59l5.86,8.64h6.94l-6.6-9.65c3.43-1.27,5.79-4.01,5.79-8.37,0-2.62-.81-4.74-2.31-6.25-1.77-1.77-4.44-2.74-7.87-2.74h-12.34v27Zm-60,0h20.56v-5.28h-14.66v-5.67h12.73v-5.28h-12.73v-5.48h14.47v-5.28h-20.37v27Zm-52.86,0h5.94v-21.53h8.22v-5.48h-22.38v5.48h8.22v21.53Zm-54.94.38c5.83,0,9.91-3.01,9.91-8.37,0-4.78-3.09-6.75-8.56-8.18-4.67-1.2-5.83-1.77-5.83-3.55,0-1.39,1.2-2.43,3.47-2.43s4.63,1,7.02,2.66l3.09-4.48c-2.74-2.2-6.09-3.43-10.03-3.43-5.52,0-9.45,3.24-9.45,8.14,0,5.44,3.51,6.94,8.95,8.33,4.51,1.16,5.44,1.93,5.44,3.43,0,1.66-1.47,2.62-3.9,2.62-3.09,0-5.63-1.27-8.06-3.28l-3.51,4.21c3.24,2.89,7.37,4.32,11.46,4.32Zm-132.26-.38h19.4v-5.4h-13.46v-21.6h-5.94v27Zm66.36-11.3l3.59-8.76,3.59,8.76h-7.17Zm-10.65,11.3h6.06l2.47-6.06h11.42l2.47,6.06h6.21l-11.57-27.2h-5.48l-11.57,27.2Zm-118.03,0h5.94v-8.26l3.12-3.24,8.37,11.5h7.14l-11.5-15.55,10.99-11.46h-7.18l-10.96,11.8v-11.8h-5.94v27Z"/>
</svg>